<svg width="696" height="91" viewBox="0 0 696 91" fill="none" xmlns="http://www.w3.org/2000/svg">
<path d="M671.536 90.3845C657.691 90.3845 648.461 83.6927 645.346 72.1552L655.383 69.6169C657.806 76.8856 663.575 80.4622 671.882 80.4622C679.843 80.4622 685.266 77.1163 685.266 72.5013C685.266 68.2324 680.305 65.0019 669.228 62.1175C653.537 57.5025 646.846 51.2722 646.846 42.5036C646.846 31.8891 656.306 25.5434 669.805 25.6588C682.15 25.6588 690.342 31.3122 694.38 41.5806L684.343 44.465C681.458 38.3501 677.189 35.8119 669.69 35.8119C662.306 35.8119 657.576 38.3501 657.576 42.7344C657.576 46.8879 661.96 49.7723 672.805 52.5413C688.612 56.8102 695.88 62.8097 695.88 72.2705C695.88 83.3466 685.843 90.4999 671.536 90.3845Z" fill="#384BFF"/>
<path d="M632.525 90.3845C621.449 90.3845 616.95 86.1156 616.95 75.2703V36.7349H606.797V26.6972H616.95V9.27546H627.333V26.6972H639.679V36.7349H627.333V73.7704C627.333 78.9623 629.641 80.0007 632.987 80.0007H640.256V89.923C637.948 90.1538 635.064 90.3845 632.525 90.3845Z" fill="#384BFF"/>
<path d="M570.41 90.3845C552.411 90.3845 538.566 76.6548 538.566 58.0793C538.566 39.5039 552.411 25.6588 570.41 25.6588C588.409 25.6588 602.254 39.5039 602.254 58.0793C602.254 76.6548 588.409 90.3845 570.41 90.3845ZM570.41 80.3468C582.063 80.3468 591.408 70.6553 591.408 58.0793C591.408 45.5034 582.063 35.9272 570.41 35.9272C558.757 35.9272 549.412 45.5034 549.412 58.0793C549.412 70.6553 558.757 80.3468 570.41 80.3468Z" fill="#384BFF"/>
<path d="M508.093 90.3845C501.17 90.3845 494.709 87.6155 489.748 80.9237V89H479.134V1.77605H489.748V34.5427C495.055 28.1971 501.516 25.5434 508.208 25.5434C524.015 25.5434 534.745 39.7346 534.745 57.964C534.745 76.0779 524.245 90.3845 508.093 90.3845ZM507.054 80.1161C517.323 80.1161 524.13 70.3092 524.13 58.1947C524.13 45.9649 517.207 36.2734 507.285 36.2734C496.901 36.2734 489.748 46.6572 489.748 58.7716C489.748 70.886 497.017 80.1161 507.054 80.1161Z" fill="#384BFF"/>
<path d="M381.754 89V26.6972H392.253V34.4273C397.445 28.5432 403.79 25.6588 410.251 25.6588C417.289 25.6588 423.174 29.2354 427.442 36.3887C432.98 29.3508 440.018 25.6588 448.095 25.6588C460.324 25.6588 468.285 34.1966 468.285 47.5802V89H457.902V49.1954C457.902 40.4269 454.21 35.6965 447.518 35.6965C440.018 35.6965 432.173 41.5806 430.327 49.08V89H419.943V49.4262C419.943 40.6576 415.789 35.6965 409.213 35.6965C402.06 35.6965 394.099 41.9268 392.253 49.4262V89H381.754Z" fill="#0C1749"/>
<path d="M339.627 90.3845C326.128 90.3845 318.513 82.4236 318.513 67.5401V26.6972H329.013V67.3094C329.013 76.5394 334.781 80.2315 341.012 80.2315C349.78 80.2315 357.972 73.0782 360.856 64.1943V26.6972H371.24V89H360.856V80.5776C354.626 88.077 346.896 90.3845 339.627 90.3845Z" fill="#0C1749"/>
<path d="M300.848 15.0442C296.809 15.0442 293.579 11.8137 293.579 7.77558C293.579 3.73744 296.809 0.50692 300.848 0.50692C304.886 0.50692 308.001 3.73744 308.001 7.77558C308.001 11.8137 304.886 15.0442 300.848 15.0442ZM295.656 89V26.6972H306.039V89H295.656Z" fill="#0C1749"/>
<path d="M272.156 89V1.77605H282.54V89H272.156Z" fill="#0C1749"/>
<path d="M253.913 15.0442C249.875 15.0442 246.645 11.8137 246.645 7.77558C246.645 3.73744 249.875 0.50692 253.913 0.50692C257.951 0.50692 261.066 3.73744 261.066 7.77558C261.066 11.8137 257.951 15.0442 253.913 15.0442ZM248.721 89V26.6972H259.105V89H248.721Z" fill="#0C1749"/>
<path d="M214.031 90.3845C200.186 90.3845 190.956 83.6927 187.841 72.1552L197.878 69.6169C200.301 76.8856 206.07 80.4622 214.377 80.4622C222.338 80.4622 227.761 77.1163 227.761 72.5013C227.761 68.2324 222.8 65.0019 211.724 62.1175C196.032 57.5025 189.341 51.2722 189.341 42.5036C189.341 31.8891 198.802 25.5434 212.3 25.6588C224.646 25.6588 232.837 31.3122 236.875 41.5806L226.838 44.465C223.953 38.3501 219.684 35.8119 212.185 35.8119C204.801 35.8119 200.071 38.3501 200.071 42.7344C200.071 46.8879 204.455 49.7723 215.3 52.5413C231.107 56.8102 238.375 62.8097 238.375 72.2705C238.375 83.3466 228.338 90.4999 214.031 90.3845Z" fill="#0C1749"/>
<path d="M127.716 89V26.6972H138.215V34.4273C144.676 27.9663 152.175 25.6588 159.213 25.6588C172.366 25.6588 180.442 33.6197 180.442 48.7339V89H170.058V49.5415C170.058 39.5039 164.751 35.6965 157.482 35.6965C148.022 35.6965 140.522 41.8114 138.215 50.1184V89H127.716Z" fill="#0C1749"/>
<path d="M88.9062 90.3845C70.9076 90.3845 57.0625 76.6548 57.0625 58.0793C57.0625 39.5039 70.9076 25.6588 88.9062 25.6588C106.905 25.6588 120.75 39.5039 120.75 58.0793C120.75 76.6548 106.905 90.3845 88.9062 90.3845ZM88.9062 80.3468C100.559 80.3468 109.905 70.6553 109.905 58.0793C109.905 45.5034 100.559 35.9272 88.9062 35.9272C77.2532 35.9272 67.9078 45.5034 67.9078 58.0793C67.9078 70.6553 77.2532 80.3468 88.9062 80.3468Z" fill="#0C1749"/>
<path d="M27.959 90.3845C10.1911 90.3845 0.0380859 75.0396 0.0380859 57.7332C0.0380859 39.1577 11.4603 25.6588 27.8436 25.6588C39.7273 25.6588 48.9573 32.6967 52.8801 44.3496L42.8424 46.8879C39.958 39.1577 34.1893 35.9272 28.0744 35.9272C17.5752 35.9272 10.6526 45.6188 10.6526 57.7332C10.6526 69.963 17.8059 80.1161 27.8436 80.1161C35.1123 80.1161 40.4195 74.5781 43.0732 66.3864L53.2262 68.8093C49.5342 83.2312 39.958 90.3845 27.959 90.3845Z" fill="#0C1749"/>
</svg>
