<svg width="276" height="276" viewBox="0 0 276 276" fill="none" xmlns="http://www.w3.org/2000/svg">
<mask id="path-1-inside-1_984_11739" fill="white">
<path d="M137.836 275.672C61.7115 275.672 0.000349966 213.96 0.000366604 137.836C0.000383241 61.7111 61.7116 -4.67625e-05 137.836 -3.0125e-05C213.961 -1.34874e-05 275.672 61.7112 275.672 137.836C275.672 213.96 213.961 275.672 137.836 275.672ZM137.836 73.9079C102.53 73.9079 73.9083 102.529 73.9083 137.836C73.9083 173.142 102.53 201.764 137.836 201.764C173.142 201.764 201.764 173.142 201.764 137.836C201.764 102.529 173.142 73.9079 137.836 73.9079Z"/>
</mask>
<path d="M137.836 275.672C61.7115 275.672 0.000349966 213.96 0.000366604 137.836C0.000383241 61.7111 61.7116 -4.67625e-05 137.836 -3.0125e-05C213.961 -1.34874e-05 275.672 61.7112 275.672 137.836C275.672 213.96 213.961 275.672 137.836 275.672ZM137.836 73.9079C102.53 73.9079 73.9083 102.529 73.9083 137.836C73.9083 173.142 102.53 201.764 137.836 201.764C173.142 201.764 201.764 173.142 201.764 137.836C201.764 102.529 173.142 73.9079 137.836 73.9079Z" stroke="#38DFCB" stroke-width="102.845" mask="url(#path-1-inside-1_984_11739)"/>
</svg>
