<svg width="109" height="109" viewBox="0 0 109 109" fill="none" xmlns="http://www.w3.org/2000/svg">
<mask id="path-1-inside-1_984_11741" fill="white">
<path d="M54.428 108.855C24.3686 108.855 0.000561369 84.4869 0.000567938 54.4274C0.000574508 24.368 24.3686 -1.84652e-05 54.428 -1.18955e-05C84.4875 -5.3258e-06 108.855 24.368 108.855 54.4275C108.855 84.4869 84.4874 108.855 54.428 108.855ZM54.428 40.4646C46.7165 40.4645 40.4651 46.716 40.4651 54.4275C40.4651 62.139 46.7165 68.3904 54.428 68.3904C62.1395 68.3904 68.3909 62.139 68.3909 54.4275C68.3909 46.716 62.1395 40.4646 54.428 40.4646Z"/>
</mask>
<path d="M54.428 108.855C24.3686 108.855 0.000561369 84.4869 0.000567938 54.4274C0.000574508 24.368 24.3686 -1.84652e-05 54.428 -1.18955e-05C84.4875 -5.3258e-06 108.855 24.368 108.855 54.4275C108.855 84.4869 84.4874 108.855 54.428 108.855ZM54.428 40.4646C46.7165 40.4645 40.4651 46.716 40.4651 54.4275C40.4651 62.139 46.7165 68.3904 54.428 68.3904C62.1395 68.3904 68.3909 62.139 68.3909 54.4275C68.3909 46.716 62.1395 40.4646 54.428 40.4646Z" stroke="url(#paint0_linear_984_11741)" stroke-width="102.845" mask="url(#path-1-inside-1_984_11741)"/>
<defs>
<linearGradient id="paint0_linear_984_11741" x1="108.855" y1="54.4275" x2="-29.7076" y2="54.5669" gradientUnits="userSpaceOnUse">
<stop stop-color="#5464FF"/>
<stop offset="1" stop-color="#D0D5FE" stop-opacity="0.9"/>
</linearGradient>
</defs>
</svg>
