<svg width="54" height="54" viewBox="0 0 54 54" fill="none" xmlns="http://www.w3.org/2000/svg">
<mask id="mask0_1886_3393" style="mask-type:alpha" maskUnits="userSpaceOnUse" x="0" y="0" width="54" height="54">
<rect width="54" height="54" fill="#D9D9D9"/>
</mask>
<g mask="url(#mask0_1886_3393)">
<path d="M36.649 16.2173L14.6769 38.1462C14.4664 38.3567 14.2082 38.4548 13.9024 38.4404C13.5966 38.426 13.3385 38.3135 13.1279 38.1029C12.9173 37.8923 12.812 37.6413 12.812 37.35C12.812 37.0587 12.9173 36.8077 13.1279 36.5971L35.0568 14.625H15.2741C14.9553 14.625 14.6881 14.517 14.4725 14.3011C14.2568 14.0852 14.149 13.8177 14.149 13.4985C14.149 13.1793 14.2568 12.9122 14.4725 12.6974C14.6881 12.4825 14.9553 12.375 15.2741 12.375H37.0818C37.5967 12.375 38.0283 12.5492 38.3766 12.8975C38.7249 13.2458 38.8991 13.6774 38.8991 14.1923V36C38.8991 36.3187 38.7911 36.5859 38.5752 36.8016C38.3593 37.0172 38.0917 37.125 37.7726 37.125C37.4534 37.125 37.1863 37.0172 36.9714 36.8016C36.7565 36.5859 36.649 36.3187 36.649 36V16.2173Z" fill="#1E293B"/>
</g>
</svg>
