<svg width="513" height="512" viewBox="0 0 513 512" fill="none" xmlns="http://www.w3.org/2000/svg">
<path d="M62.1519 124.304C96.4774 124.304 124.304 96.4774 124.304 62.1519C124.304 27.8263 96.4774 0 62.1519 0C27.8263 0 0 27.8263 0 62.1519C0 96.4774 27.8263 124.304 62.1519 124.304Z" fill="white"/>
<path d="M181.224 170.236H284.23V217.423C284.23 217.423 312.182 161.519 388.235 161.519C456.078 161.519 512.279 194.94 512.279 296.81V511.625H405.536V322.84C405.536 262.746 373.453 256.137 349.006 256.137C298.269 256.137 289.583 299.9 289.583 330.679V511.625H181.224V170.236Z" fill="white"/>
<path d="M7.97255 170.236H116.331V511.625H7.97255V170.236Z" fill="white"/>
</svg>
