<svg width="67" height="67" viewBox="0 0 67 67" fill="none" xmlns="http://www.w3.org/2000/svg">
<mask id="mask0_1886_3399" style="mask-type:alpha" maskUnits="userSpaceOnUse" x="0" y="0" width="67" height="67">
<rect x="0.5" y="0.5" width="66" height="66" fill="#D9D9D9"/>
</mask>
<g mask="url(#mask0_1886_3399)">
<path d="M22.5 30.1154C23.0676 30.1154 23.5621 29.9047 23.9834 29.4834C24.4047 29.0621 24.6154 28.5676 24.6154 28C24.6154 27.4324 24.4047 26.9379 23.9834 26.5166C23.5621 26.0953 23.0676 25.8846 22.5 25.8846C21.9324 25.8846 21.4379 26.0953 21.0166 26.5166C20.5953 26.9379 20.3846 27.4324 20.3846 28C20.3846 28.5676 20.5953 29.0621 21.0166 29.4834C21.4379 29.9047 21.9324 30.1154 22.5 30.1154ZM33.5 30.1154C34.0676 30.1154 34.5621 29.9047 34.9834 29.4834C35.4047 29.0621 35.6154 28.5676 35.6154 28C35.6154 27.4324 35.4047 26.9379 34.9834 26.5166C34.5621 26.0953 34.0676 25.8846 33.5 25.8846C32.9324 25.8846 32.4379 26.0953 32.0166 26.5166C31.5953 26.9379 31.3846 27.4324 31.3846 28C31.3846 28.5676 31.5953 29.0621 32.0166 29.4834C32.4379 29.9047 32.9324 30.1154 33.5 30.1154ZM44.5 30.1154C45.0676 30.1154 45.5621 29.9047 45.9834 29.4834C46.4047 29.0621 46.6154 28.5676 46.6154 28C46.6154 27.4324 46.4047 26.9379 45.9834 26.5166C45.5621 26.0953 45.0676 25.8846 44.5 25.8846C43.9324 25.8846 43.4379 26.0953 43.0166 26.5166C42.5953 26.9379 42.3846 27.4324 42.3846 28C42.3846 28.5676 42.5953 29.0621 43.0166 29.4834C43.4379 29.9047 43.9324 30.1154 44.5 30.1154ZM8.75 55.7115V13.1923C8.75 11.9266 9.17396 10.8698 10.0219 10.0219C10.8698 9.17396 11.9266 8.75 13.1923 8.75H53.8077C55.0734 8.75 56.1302 9.17396 56.9781 10.0219C57.826 10.8698 58.25 11.9266 58.25 13.1923V42.8077C58.25 44.0734 57.826 45.1302 56.9781 45.9781C56.1302 46.826 55.0734 47.25 53.8077 47.25H17.2115L8.75 55.7115ZM16.0375 44.5H53.8077C54.2308 44.5 54.6186 44.3237 54.9712 43.9712C55.3237 43.6186 55.5 43.2308 55.5 42.8077V13.1923C55.5 12.7692 55.3237 12.3814 54.9712 12.0288C54.6186 11.6763 54.2308 11.5 53.8077 11.5H13.1923C12.7692 11.5 12.3814 11.6763 12.0288 12.0288C11.6763 12.3814 11.5 12.7692 11.5 13.1923V49.0216L16.0375 44.5Z" fill="#1E293B"/>
</g>
</svg>
