<svg width="67" height="67" viewBox="0 0 67 67" fill="none" xmlns="http://www.w3.org/2000/svg">
<mask id="mask0_1886_3402" style="mask-type:alpha" maskUnits="userSpaceOnUse" x="0" y="0" width="67" height="67">
<rect x="0.5" y="0.5" width="66" height="66" fill="#D9D9D9"/>
</mask>
<g mask="url(#mask0_1886_3402)">
<path d="M19.5438 51.7874C17.7104 51.7874 16.1411 51.1457 14.8357 49.8624C13.5286 48.5791 12.875 46.9978 12.875 45.1187C12.875 43.2853 13.5286 41.7151 14.8357 40.4079C16.1411 39.1026 17.7104 38.4499 19.5438 38.4499C21.3771 38.4499 22.9464 39.1026 24.2518 40.4079C25.5589 41.7151 26.2125 43.2853 26.2125 45.1187C26.2125 46.9978 25.5589 48.5791 24.2518 49.8624C22.9464 51.1457 21.3771 51.7874 19.5438 51.7874ZM47.4563 51.7874C45.6229 51.7874 44.0536 51.1457 42.7482 49.8624C41.4411 48.5791 40.7875 46.9978 40.7875 45.1187C40.7875 43.2853 41.4411 41.7151 42.7482 40.4079C44.0536 39.1026 45.6229 38.4499 47.4563 38.4499C49.2896 38.4499 50.8598 39.1026 52.167 40.4079C53.4723 41.7151 54.125 43.2853 54.125 45.1187C54.125 46.9978 53.4723 48.5791 52.167 49.8624C50.8598 51.1457 49.2896 51.7874 47.4563 51.7874ZM33.5 28.5499C31.6667 28.5499 30.0973 27.8963 28.792 26.5892C27.4848 25.2838 26.8312 23.7145 26.8312 21.8812C26.8312 20.002 27.4848 18.4207 28.792 17.1374C30.0973 15.8541 31.6667 15.2124 33.5 15.2124C35.3333 15.2124 36.9036 15.8541 38.2108 17.1374C39.5161 18.4207 40.1688 20.002 40.1688 21.8812C40.1688 23.7145 39.5161 25.2838 38.2108 26.5892C36.9036 27.8963 35.3333 28.5499 33.5 28.5499Z" fill="#1E293B"/>
</g>
</svg>
