<svg width="359" height="263" viewBox="0 0 359 263" fill="none" xmlns="http://www.w3.org/2000/svg">
<rect width="358.033" height="262.557" rx="3.97814" fill="white"/>
<path d="M141 108.827H102.693V153.519H141V108.827Z" fill="#2A4ECF"/>
<path d="M131.401 136.631C131.002 137.975 130.372 139.098 129.512 140C128.651 140.903 127.633 141.575 126.457 142.016C125.282 142.456 123.991 142.677 122.584 142.677C120.527 142.677 118.743 142.246 117.231 141.386C115.741 140.525 114.586 139.297 113.767 137.702C112.97 136.106 112.571 134.196 112.571 131.971C112.571 129.745 112.97 127.835 113.767 126.24C114.586 124.644 115.741 123.416 117.231 122.556C118.743 121.695 120.506 121.265 122.521 121.265C123.949 121.265 125.24 121.464 126.394 121.863C127.549 122.241 128.525 122.839 129.323 123.658C130.141 124.455 130.74 125.453 131.118 126.649L127.182 128.318C126.825 127.058 126.279 126.166 125.544 125.641C124.809 125.096 123.865 124.823 122.71 124.823C121.577 124.823 120.579 125.096 119.719 125.641C118.879 126.187 118.228 126.995 117.766 128.066C117.305 129.116 117.074 130.417 117.074 131.971C117.074 133.503 117.284 134.805 117.703 135.875C118.144 136.946 118.785 137.754 119.624 138.3C120.464 138.846 121.493 139.119 122.71 139.119C123.844 139.119 124.82 138.814 125.639 138.205C126.478 137.597 127.066 136.673 127.402 135.434L131.401 136.631Z" fill="white"/>
<path d="M179.307 108.827H141V153.519H179.307V108.827Z" fill="#2A4ECF"/>
<path d="M169.708 136.631C169.309 137.975 168.679 139.098 167.818 140C166.958 140.903 165.94 141.575 164.764 142.016C163.588 142.456 162.297 142.677 160.891 142.677C158.834 142.677 157.049 142.246 155.538 141.386C154.047 140.525 152.893 139.297 152.074 137.702C151.276 136.106 150.877 134.196 150.877 131.971C150.877 129.745 151.276 127.835 152.074 126.24C152.893 124.644 154.047 123.416 155.538 122.556C157.049 121.695 158.813 121.265 160.828 121.265C162.255 121.265 163.546 121.464 164.701 121.863C165.856 122.241 166.832 122.839 167.629 123.658C168.448 124.455 169.046 125.453 169.424 126.649L165.488 128.318C165.131 127.058 164.586 126.166 163.851 125.641C163.116 125.096 162.171 124.823 161.017 124.823C159.883 124.823 158.886 125.096 158.025 125.641C157.186 126.187 156.535 126.995 156.073 128.066C155.611 129.116 155.38 130.417 155.38 131.971C155.38 133.503 155.59 134.805 156.01 135.875C156.451 136.946 157.091 137.754 157.931 138.3C158.771 138.846 159.799 139.119 161.017 139.119C162.15 139.119 163.127 138.814 163.945 138.205C164.785 137.597 165.373 136.673 165.709 135.434L169.708 136.631Z" fill="white"/>
<path d="M217.614 108.827H179.307V153.519H217.614V108.827Z" fill="#2A4ECF"/>
<path d="M208.267 142.362H203.764L202.032 137.292H194.065L192.333 142.362H187.894L195.482 121.579H200.678L208.267 142.362ZM195.041 134.08H201.056L198.033 125.012L195.041 134.08Z" fill="white"/>
<path d="M255.922 108.827H217.614V153.519H255.922V108.827Z" fill="#2A4ECF"/>
<path d="M237.032 121.265C238.921 121.265 240.58 121.59 242.007 122.241C243.435 122.891 244.652 123.857 245.66 125.138L243.235 127.94C242.374 126.849 241.43 126.051 240.401 125.547C239.393 125.022 238.218 124.76 236.874 124.76C235.993 124.76 235.258 124.875 234.67 125.106C234.103 125.337 233.684 125.641 233.411 126.019C233.159 126.397 233.033 126.817 233.033 127.279C233.033 127.846 233.253 128.328 233.694 128.727C234.135 129.105 234.891 129.42 235.961 129.672L239.834 130.554C241.892 131.016 243.361 131.708 244.243 132.632C245.145 133.535 245.597 134.71 245.597 136.159C245.597 137.523 245.24 138.699 244.526 139.685C243.812 140.651 242.815 141.396 241.535 141.921C240.254 142.425 238.785 142.677 237.126 142.677C235.678 142.677 234.345 142.509 233.127 142.173C231.931 141.816 230.86 141.333 229.915 140.725C228.971 140.116 228.183 139.413 227.554 138.615L230.01 135.686C230.493 136.358 231.091 136.956 231.805 137.481C232.518 138.006 233.327 138.426 234.229 138.741C235.153 139.035 236.119 139.182 237.126 139.182C237.987 139.182 238.711 139.087 239.299 138.898C239.908 138.688 240.359 138.405 240.653 138.048C240.968 137.67 241.125 137.219 241.125 136.694C241.125 136.148 240.936 135.686 240.559 135.308C240.202 134.91 239.53 134.605 238.543 134.395L234.324 133.451C233.106 133.157 232.057 132.779 231.175 132.317C230.314 131.834 229.653 131.225 229.191 130.491C228.75 129.735 228.53 128.843 228.53 127.814C228.53 126.576 228.866 125.463 229.537 124.476C230.209 123.49 231.175 122.713 232.434 122.146C233.715 121.558 235.247 121.265 237.032 121.265Z" fill="white"/>
</svg>
