<svg width="359" height="263" viewBox="0 0 359 263" fill="none" xmlns="http://www.w3.org/2000/svg">
<rect width="358.033" height="262.557" rx="3.97814" fill="white"/>
<path fill-rule="evenodd" clip-rule="evenodd" d="M95.113 158.788L99.9141 150.627L100.075 161.121H96.4553L96.4554 161.121H90.1212L90.6028 150.948L95.113 158.788Z" fill="#FF97BE"/>
<path d="M90.1212 113.84V104.643H93.6502C94.3988 104.643 95.1117 104.717 95.789 104.864C96.4752 105.003 97.0767 105.25 97.5936 105.605C98.1194 105.951 98.5382 106.414 98.8501 106.995C99.162 107.575 99.318 108.307 99.318 109.19C99.318 109.995 99.1665 110.692 98.8635 111.281C98.5694 111.87 98.1728 112.355 97.6738 112.736C97.1747 113.108 96.5999 113.386 95.9494 113.567C95.2988 113.749 94.6216 113.84 93.9175 113.84H90.1212Z" fill="#FFC62F"/>
<rect x="192.344" y="126.634" width="6.10063" height="5.45846" transform="rotate(90 192.344 126.634)" fill="#FF8A00"/>
<path d="M89.1202 103.729H93.2978C94.0634 103.729 94.8345 103.828 95.6112 104.028C96.3879 104.228 97.0869 104.561 97.7083 105.027C98.3297 105.482 98.8345 106.086 99.2229 106.841C99.6112 107.584 99.8054 108.511 99.8054 109.62C99.8054 110.652 99.6112 111.54 99.2229 112.283C98.8345 113.027 98.3297 113.637 97.7083 114.114C97.0869 114.591 96.3879 114.946 95.6112 115.179C94.8345 115.401 94.0634 115.512 93.2978 115.512H89.1202V103.729ZM92.9649 113.681C93.5086 113.681 94.0523 113.62 94.5959 113.498C95.1396 113.365 95.6278 113.149 96.0606 112.849C96.5044 112.539 96.865 112.122 97.1424 111.601C97.4198 111.079 97.5585 110.419 97.5585 109.62C97.5585 108.777 97.4198 108.089 97.1424 107.557C96.865 107.024 96.5044 106.608 96.0606 106.308C95.6278 106.009 95.1396 105.803 94.5959 105.693C94.0523 105.582 93.5086 105.526 92.9649 105.526H91.2173V113.681H92.9649ZM185.126 126.729H192.732V128.559H187.223V131.788H192.416V133.552H187.223V138.512H185.126V126.729ZM89.1202 149.729H92.399L95.4614 158.1H95.5113L98.5405 149.729H101.836V161.512H99.7554V152.042H99.7222L96.1438 161.512H94.6792L91.1507 152.042H91.1174V161.512H89.1202V149.729Z" fill="#0F172A"/>
<path d="M89.1202 103.729H93.2978C94.0634 103.729 94.8345 103.828 95.6112 104.028C96.3879 104.228 97.0869 104.561 97.7083 105.027C98.3297 105.482 98.8345 106.086 99.2229 106.841C99.6112 107.584 99.8054 108.511 99.8054 109.62C99.8054 110.652 99.6112 111.54 99.2229 112.283C98.8345 113.027 98.3297 113.637 97.7083 114.114C97.0869 114.591 96.3879 114.946 95.6112 115.179C94.8345 115.401 94.0634 115.512 93.2978 115.512H89.1202V103.729ZM92.9649 113.681C93.5086 113.681 94.0523 113.62 94.5959 113.498C95.1396 113.365 95.6278 113.149 96.0606 112.849C96.5044 112.539 96.865 112.122 97.1424 111.601C97.4198 111.079 97.5585 110.419 97.5585 109.62C97.5585 108.777 97.4198 108.089 97.1424 107.557C96.865 107.024 96.5044 106.608 96.0606 106.308C95.6278 106.009 95.1396 105.803 94.5959 105.693C94.0523 105.582 93.5086 105.526 92.9649 105.526H91.2173V113.681H92.9649ZM185.126 126.729H192.732V128.559H187.223V131.788H192.416V133.552H187.223V138.512H185.126V126.729ZM89.1202 149.729H92.399L95.4614 158.1H95.5113L98.5405 149.729H101.836V161.512H99.7554V152.042H99.7222L96.1438 161.512H94.6792L91.1507 152.042H91.1174V161.512H89.1202V149.729Z" fill="black" fill-opacity="0.2"/>
<path d="M104.327 103.729H112.133V105.559H106.424V108.555H111.833V110.319H106.424V113.648H112.432V115.512H104.327V103.729ZM125.487 106.491C125.176 106.07 124.771 105.765 124.272 105.576C123.772 105.376 123.284 105.276 122.807 105.276C122.197 105.276 121.642 105.387 121.143 105.609C120.643 105.831 120.211 106.136 119.845 106.525C119.49 106.913 119.212 107.368 119.012 107.889C118.824 108.411 118.729 108.977 118.729 109.587C118.729 110.231 118.824 110.819 119.012 111.351C119.201 111.884 119.467 112.344 119.811 112.733C120.166 113.11 120.588 113.404 121.076 113.615C121.564 113.826 122.114 113.931 122.724 113.931C123.356 113.931 123.917 113.809 124.405 113.565C124.893 113.31 125.287 112.977 125.587 112.566L127.268 113.748C126.746 114.403 126.108 114.913 125.354 115.279C124.599 115.634 123.717 115.812 122.707 115.812C121.786 115.812 120.938 115.662 120.161 115.362C119.395 115.052 118.735 114.625 118.18 114.081C117.625 113.526 117.193 112.871 116.882 112.117C116.571 111.351 116.416 110.508 116.416 109.587C116.416 108.644 116.577 107.795 116.899 107.041C117.232 106.275 117.681 105.626 118.247 105.093C118.824 104.561 119.501 104.15 120.277 103.862C121.054 103.573 121.897 103.429 122.807 103.429C123.184 103.429 123.578 103.468 123.989 103.545C124.399 103.612 124.793 103.723 125.171 103.878C125.548 104.023 125.903 104.206 126.236 104.428C126.569 104.65 126.852 104.916 127.085 105.226L125.487 106.491ZM131.067 103.729H133.164V115.512H131.067V103.729ZM138.261 103.729H142.438C143.204 103.729 143.975 103.828 144.752 104.028C145.529 104.228 146.228 104.561 146.849 105.027C147.47 105.482 147.975 106.086 148.364 106.841C148.752 107.584 148.946 108.511 148.946 109.62C148.946 110.652 148.752 111.54 148.364 112.283C147.975 113.027 147.47 113.637 146.849 114.114C146.228 114.591 145.529 114.946 144.752 115.179C143.975 115.401 143.204 115.512 142.438 115.512H138.261V103.729ZM142.106 113.681C142.649 113.681 143.193 113.62 143.737 113.498C144.28 113.365 144.769 113.149 145.201 112.849C145.645 112.539 146.006 112.122 146.283 111.601C146.561 111.079 146.699 110.419 146.699 109.62C146.699 108.777 146.561 108.089 146.283 107.557C146.006 107.024 145.645 106.608 145.201 106.308C144.769 106.009 144.28 105.803 143.737 105.693C143.193 105.582 142.649 105.526 142.106 105.526H140.358V113.681H142.106ZM153.468 103.729H155.565V115.512H153.468V103.729ZM160.661 103.729H168.467V105.559H162.759V108.555H168.168V110.319H162.759V113.648H168.767V115.512H160.661V103.729ZM173.316 103.729H176.096L181.572 112.55H181.605V103.729H183.702V115.512H181.039L175.447 106.408H175.414V115.512H173.316V103.729ZM188.799 103.729H192.977C193.743 103.729 194.514 103.828 195.29 104.028C196.067 104.228 196.766 104.561 197.388 105.027C198.009 105.482 198.514 106.086 198.902 106.841C199.29 107.584 199.485 108.511 199.485 109.62C199.485 110.652 199.29 111.54 198.902 112.283C198.514 113.027 198.009 113.637 197.388 114.114C196.766 114.591 196.067 114.946 195.29 115.179C194.514 115.401 193.743 115.512 192.977 115.512H188.799V103.729ZM192.644 113.681C193.188 113.681 193.732 113.62 194.275 113.498C194.819 113.365 195.307 113.149 195.74 112.849C196.184 112.539 196.544 112.122 196.822 111.601C197.099 111.079 197.238 110.419 197.238 109.62C197.238 108.777 197.099 108.089 196.822 107.557C196.544 107.024 196.184 106.608 195.74 106.308C195.307 106.009 194.819 105.803 194.275 105.693C193.732 105.582 193.188 105.526 192.644 105.526H190.897V113.681H192.644ZM203.44 109.587C203.44 108.644 203.596 107.795 203.906 107.041C204.228 106.275 204.666 105.626 205.221 105.093C205.787 104.561 206.453 104.15 207.218 103.862C207.995 103.573 208.838 103.429 209.748 103.429C210.669 103.429 211.518 103.573 212.295 103.862C213.071 104.15 213.743 104.561 214.309 105.093C214.874 105.626 215.313 106.275 215.623 107.041C215.945 107.795 216.106 108.644 216.106 109.587C216.106 110.508 215.945 111.351 215.623 112.117C215.313 112.871 214.874 113.526 214.309 114.081C213.743 114.625 213.071 115.052 212.295 115.362C211.518 115.662 210.669 115.812 209.748 115.812C208.838 115.812 207.995 115.662 207.218 115.362C206.453 115.052 205.787 114.625 205.221 114.081C204.666 113.526 204.228 112.871 203.906 112.117C203.596 111.351 203.44 110.508 203.44 109.587ZM205.721 109.587C205.721 110.22 205.815 110.802 206.003 111.335C206.203 111.856 206.481 112.311 206.836 112.699C207.202 113.088 207.629 113.393 208.117 113.615C208.616 113.826 209.166 113.931 209.765 113.931C210.364 113.931 210.913 113.826 211.413 113.615C211.912 113.393 212.339 113.088 212.694 112.699C213.06 112.311 213.338 111.856 213.526 111.335C213.726 110.802 213.826 110.22 213.826 109.587C213.826 108.977 213.726 108.411 213.526 107.889C213.338 107.368 213.066 106.913 212.711 106.525C212.356 106.136 211.929 105.831 211.429 105.609C210.93 105.387 210.375 105.276 209.765 105.276C209.155 105.276 208.6 105.387 208.101 105.609C207.612 105.831 207.191 106.136 206.836 106.525C206.481 106.913 206.203 107.368 206.003 107.889C205.815 108.411 205.721 108.977 205.721 109.587ZM89.1202 126.729H92.9649C93.6417 126.729 94.252 126.79 94.7957 126.912C95.3394 127.034 95.8054 127.233 96.1937 127.511C96.5821 127.788 96.8817 128.143 97.0925 128.576C97.3033 129.009 97.4087 129.53 97.4087 130.141C97.4087 130.795 97.2867 131.344 97.0425 131.788C96.7984 132.232 96.4656 132.593 96.0439 132.87C95.6334 133.136 95.1507 133.331 94.5959 133.453C94.0412 133.575 93.4531 133.636 92.8317 133.636H91.2173V138.512H89.1202V126.729ZM92.6819 131.871C93.0259 131.871 93.3532 131.849 93.6639 131.805C93.9746 131.749 94.252 131.661 94.4961 131.539C94.7402 131.405 94.9344 131.228 95.0786 131.006C95.2229 130.784 95.295 130.496 95.295 130.141C95.295 129.797 95.2229 129.519 95.0786 129.308C94.9344 129.086 94.7402 128.914 94.4961 128.792C94.2631 128.67 93.9912 128.593 93.6806 128.559C93.381 128.515 93.0703 128.493 92.7485 128.493H91.2173V131.871H92.6819ZM104.479 126.729H106.293L111.369 138.512H108.972L107.874 135.816H102.764L101.699 138.512H99.3524L104.479 126.729ZM107.142 134.018L105.327 129.225L103.48 134.018H107.142ZM115.031 126.729H119.126C119.681 126.729 120.219 126.79 120.74 126.912C121.262 127.023 121.722 127.211 122.122 127.478C122.532 127.744 122.86 128.093 123.104 128.526C123.348 128.959 123.47 129.486 123.47 130.107C123.47 130.962 123.226 131.661 122.737 132.204C122.26 132.737 121.606 133.098 120.774 133.286L123.919 138.512H121.389L118.66 133.519H117.129V138.512H115.031V126.729ZM118.843 131.805C119.142 131.805 119.442 131.783 119.742 131.738C120.041 131.694 120.308 131.611 120.541 131.489C120.785 131.367 120.984 131.195 121.14 130.973C121.295 130.74 121.373 130.446 121.373 130.091C121.373 129.769 121.301 129.508 121.156 129.308C121.012 129.098 120.829 128.931 120.607 128.809C120.385 128.687 120.13 128.604 119.841 128.559C119.564 128.515 119.292 128.493 119.026 128.493H117.129V131.805H118.843ZM131.69 126.729H133.504L138.581 138.512H136.184L135.085 135.816H129.976L128.911 138.512H126.564L131.69 126.729ZM134.353 134.018L132.539 129.225L130.692 134.018H134.353ZM157.995 134.185C157.995 134.895 157.873 135.539 157.629 136.116C157.385 136.681 157.052 137.164 156.63 137.564C156.208 137.963 155.709 138.274 155.132 138.496C154.555 138.706 153.928 138.812 153.251 138.812C152.575 138.812 151.948 138.706 151.371 138.496C150.794 138.274 150.289 137.963 149.856 137.564C149.435 137.164 149.102 136.681 148.858 136.116C148.625 135.539 148.508 134.895 148.508 134.185V126.729H150.605V134.102C150.605 134.446 150.65 134.79 150.738 135.134C150.827 135.466 150.971 135.766 151.171 136.032C151.382 136.299 151.654 136.515 151.987 136.681C152.331 136.848 152.752 136.931 153.251 136.931C153.751 136.931 154.167 136.848 154.5 136.681C154.844 136.515 155.116 136.299 155.315 136.032C155.526 135.766 155.676 135.466 155.765 135.134C155.853 134.79 155.898 134.446 155.898 134.102V126.729H157.995V134.185ZM162.986 126.729H165.765L171.241 135.55H171.274V126.729H173.371V138.512H170.708L165.116 129.408H165.083V138.512H162.986V126.729ZM206.55 134.185C206.55 134.895 206.428 135.539 206.184 136.116C205.94 136.681 205.607 137.164 205.186 137.564C204.764 137.963 204.265 138.274 203.688 138.496C203.111 138.706 202.484 138.812 201.807 138.812C201.13 138.812 200.503 138.706 199.926 138.496C199.349 138.274 198.845 137.963 198.412 137.564C197.99 137.164 197.657 136.681 197.413 136.116C197.18 135.539 197.064 134.895 197.064 134.185V126.729H199.161V134.102C199.161 134.446 199.205 134.79 199.294 135.134C199.383 135.466 199.527 135.766 199.727 136.032C199.937 136.299 200.209 136.515 200.542 136.681C200.886 136.848 201.308 136.931 201.807 136.931C202.306 136.931 202.722 136.848 203.055 136.681C203.399 136.515 203.671 136.299 203.871 136.032C204.082 135.766 204.231 135.466 204.32 135.134C204.409 134.79 204.453 134.446 204.453 134.102V126.729H206.55V134.185ZM213.921 128.559H210.31V126.729H219.63V128.559H216.018V138.512H213.921V128.559ZM232.884 134.185C232.884 134.895 232.762 135.539 232.518 136.116C232.274 136.681 231.941 137.164 231.52 137.564C231.098 137.963 230.599 138.274 230.022 138.496C229.445 138.706 228.818 138.812 228.141 138.812C227.464 138.812 226.837 138.706 226.26 138.496C225.683 138.274 225.178 137.963 224.746 137.564C224.324 137.164 223.991 136.681 223.747 136.116C223.514 135.539 223.398 134.895 223.398 134.185V126.729H225.495V134.102C225.495 134.446 225.539 134.79 225.628 135.134C225.717 135.466 225.861 135.766 226.06 136.032C226.271 136.299 226.543 136.515 226.876 136.681C227.22 136.848 227.642 136.931 228.141 136.931C228.64 136.931 229.056 136.848 229.389 136.681C229.733 136.515 230.005 136.299 230.205 136.032C230.416 135.766 230.565 135.466 230.654 135.134C230.743 134.79 230.787 134.446 230.787 134.102V126.729H232.884V134.185ZM237.875 126.729H241.97C242.524 126.729 243.062 126.79 243.584 126.912C244.105 127.023 244.566 127.211 244.965 127.478C245.376 127.744 245.703 128.093 245.947 128.526C246.191 128.959 246.313 129.486 246.313 130.107C246.313 130.962 246.069 131.661 245.581 132.204C245.104 132.737 244.449 133.098 243.617 133.286L246.763 138.512H244.233L241.504 133.519H239.972V138.512H237.875V126.729ZM241.687 131.805C241.986 131.805 242.286 131.783 242.585 131.738C242.885 131.694 243.151 131.611 243.384 131.489C243.628 131.367 243.828 131.195 243.983 130.973C244.139 130.74 244.216 130.446 244.216 130.091C244.216 129.769 244.144 129.508 244 129.308C243.856 129.098 243.673 128.931 243.451 128.809C243.229 128.687 242.974 128.604 242.685 128.559C242.408 128.515 242.136 128.493 241.87 128.493H239.972V131.805H241.687ZM250.273 132.587C250.273 131.644 250.428 130.795 250.739 130.041C251.061 129.275 251.499 128.626 252.054 128.093C252.62 127.561 253.286 127.15 254.051 126.862C254.828 126.573 255.671 126.429 256.581 126.429C257.502 126.429 258.351 126.573 259.127 126.862C259.904 127.15 260.575 127.561 261.141 128.093C261.707 128.626 262.145 129.275 262.456 130.041C262.778 130.795 262.939 131.644 262.939 132.587C262.939 133.508 262.778 134.351 262.456 135.117C262.145 135.871 261.707 136.526 261.141 137.081C260.575 137.625 259.904 138.052 259.127 138.362C258.351 138.662 257.502 138.812 256.581 138.812C255.671 138.812 254.828 138.662 254.051 138.362C253.286 138.052 252.62 137.625 252.054 137.081C251.499 136.526 251.061 135.871 250.739 135.117C250.428 134.351 250.273 133.508 250.273 132.587ZM252.553 132.587C252.553 133.22 252.648 133.802 252.836 134.335C253.036 134.856 253.313 135.311 253.668 135.699C254.035 136.088 254.462 136.393 254.95 136.615C255.449 136.826 255.998 136.931 256.598 136.931C257.197 136.931 257.746 136.826 258.245 136.615C258.745 136.393 259.172 136.088 259.527 135.699C259.893 135.311 260.17 134.856 260.359 134.335C260.559 133.802 260.659 133.22 260.659 132.587C260.659 131.977 260.559 131.411 260.359 130.889C260.17 130.368 259.899 129.913 259.544 129.525C259.188 129.136 258.761 128.831 258.262 128.609C257.763 128.387 257.208 128.276 256.598 128.276C255.987 128.276 255.433 128.387 254.933 128.609C254.445 128.831 254.023 129.136 253.668 129.525C253.313 129.913 253.036 130.368 252.836 130.889C252.648 131.411 252.553 131.977 252.553 132.587ZM106.928 149.729H114.733V151.559H109.025V154.555H114.434V156.319H109.025V159.648H115.033V161.512H106.928V149.729ZM125.374 157.701C125.374 158.134 125.324 158.588 125.225 159.066C125.136 159.543 124.964 159.987 124.709 160.397C124.453 160.808 124.093 161.146 123.627 161.412C123.161 161.679 122.562 161.812 121.829 161.812C120.875 161.812 120.11 161.573 119.533 161.096C118.967 160.619 118.578 159.992 118.367 159.215L120.298 158.666C120.398 159.055 120.581 159.365 120.847 159.598C121.114 159.82 121.43 159.931 121.796 159.931C122.096 159.931 122.34 159.876 122.528 159.765C122.728 159.654 122.878 159.498 122.978 159.299C123.089 159.088 123.166 158.844 123.211 158.566C123.255 158.278 123.277 157.967 123.277 157.634V149.729H125.374V157.701ZM129.802 155.587C129.802 154.644 129.958 153.795 130.268 153.041C130.59 152.275 131.028 151.626 131.583 151.093C132.149 150.561 132.815 150.15 133.58 149.862C134.357 149.573 135.2 149.429 136.11 149.429C137.031 149.429 137.88 149.573 138.657 149.862C139.433 150.15 140.105 150.561 140.671 151.093C141.237 151.626 141.675 152.275 141.985 153.041C142.307 153.795 142.468 154.644 142.468 155.587C142.468 156.508 142.307 157.351 141.985 158.117C141.675 158.871 141.237 159.526 140.671 160.081C140.105 160.625 139.433 161.052 138.657 161.362C137.88 161.662 137.031 161.812 136.11 161.812C135.2 161.812 134.357 161.662 133.58 161.362C132.815 161.052 132.149 160.625 131.583 160.081C131.028 159.526 130.59 158.871 130.268 158.117C129.958 157.351 129.802 156.508 129.802 155.587ZM132.083 155.587C132.083 156.22 132.177 156.802 132.365 157.335C132.565 157.856 132.843 158.311 133.198 158.699C133.564 159.088 133.991 159.393 134.479 159.615C134.979 159.826 135.528 159.931 136.127 159.931C136.726 159.931 137.275 159.826 137.775 159.615C138.274 159.393 138.701 159.088 139.056 158.699C139.422 158.311 139.7 157.856 139.888 157.335C140.088 156.802 140.188 156.22 140.188 155.587C140.188 154.977 140.088 154.411 139.888 153.889C139.7 153.368 139.428 152.913 139.073 152.525C138.718 152.136 138.291 151.831 137.791 151.609C137.292 151.387 136.737 151.276 136.127 151.276C135.517 151.276 134.962 151.387 134.463 151.609C133.974 151.831 133.553 152.136 133.198 152.525C132.843 152.913 132.565 153.368 132.365 153.889C132.177 154.411 132.083 154.977 132.083 155.587ZM146.989 149.729H151.083C151.638 149.729 152.176 149.79 152.698 149.912C153.219 150.023 153.68 150.211 154.079 150.478C154.49 150.744 154.817 151.093 155.061 151.526C155.305 151.959 155.427 152.486 155.427 153.107C155.427 153.962 155.183 154.661 154.695 155.204C154.218 155.737 153.563 156.098 152.731 156.286L155.877 161.512H153.347L150.617 156.519H149.086V161.512H146.989V149.729ZM150.8 154.805C151.1 154.805 151.4 154.783 151.699 154.738C151.999 154.694 152.265 154.611 152.498 154.489C152.742 154.367 152.942 154.195 153.097 153.973C153.253 153.74 153.33 153.446 153.33 153.091C153.33 152.769 153.258 152.508 153.114 152.308C152.97 152.098 152.787 151.931 152.565 151.809C152.343 151.687 152.088 151.604 151.799 151.559C151.522 151.515 151.25 151.493 150.984 151.493H149.086V154.805H150.8Z" fill="#64748B"/>
</svg>
