<svg xmlns="http://www.w3.org/2000/svg" width="359" height="263" fill="none" viewBox="0 0 359 263"><rect width="358.033" height="262.557" fill="#fff" rx="3.978"/><path fill="#ff97be" fill-rule="evenodd" d="m95.113 158.788 4.801-8.161.161 10.494h-9.954l.482-10.173z" clip-rule="evenodd"/><path fill="#ffc62f" d="M90.121 113.84v-9.197h3.53q1.122 0 2.138.221a4.85 4.85 0 0 1 1.805.741 3.76 3.76 0 0 1 1.256 1.39q.468.87.468 2.195 0 1.207-.454 2.091a4.1 4.1 0 0 1-1.19 1.455q-.75.559-1.725.831a7.5 7.5 0 0 1-2.031.273z"/><path fill="#ff8a00" d="M192.344 126.634v6.101h-5.458v-6.101z"/><path fill="#0f172a" d="M89.12 103.729h4.178q1.148 0 2.313.299 1.166.3 2.097.999.933.682 1.515 1.814.582 1.115.582 2.779 0 1.548-.582 2.663a5.45 5.45 0 0 1-1.515 1.831 6.5 6.5 0 0 1-2.097 1.065 8.4 8.4 0 0 1-2.313.333H89.12zm3.845 9.952q.816 0 1.63-.183a4.4 4.4 0 0 0 1.466-.649q.665-.466 1.081-1.248.416-.783.416-1.981 0-1.265-.416-2.063-.416-.8-1.081-1.249a3.9 3.9 0 0 0-1.465-.615 8 8 0 0 0-1.631-.167h-1.748v8.155zm92.161 13.048h7.606v1.83h-5.509v3.229h5.193v1.764h-5.193v4.96h-2.097zm-96.006 23h3.28l3.062 8.371h.05l3.03-8.371h3.295v11.783h-2.08v-9.47h-.034l-3.578 9.47H94.68l-3.528-9.47h-.034v9.47H89.12z"/><path fill="#000" fill-opacity=".2" d="M89.12 103.729h4.178q1.148 0 2.313.299 1.166.3 2.097.999.933.682 1.515 1.814.582 1.115.582 2.779 0 1.548-.582 2.663a5.45 5.45 0 0 1-1.515 1.831 6.5 6.5 0 0 1-2.097 1.065 8.4 8.4 0 0 1-2.313.333H89.12zm3.845 9.952q.816 0 1.63-.183a4.4 4.4 0 0 0 1.466-.649q.665-.466 1.081-1.248.416-.783.416-1.981 0-1.265-.416-2.063-.416-.8-1.081-1.249a3.9 3.9 0 0 0-1.465-.615 8 8 0 0 0-1.631-.167h-1.748v8.155zm92.161 13.048h7.606v1.83h-5.509v3.229h5.193v1.764h-5.193v4.96h-2.097zm-96.006 23h3.28l3.062 8.371h.05l3.03-8.371h3.295v11.783h-2.08v-9.47h-.034l-3.578 9.47H94.68l-3.528-9.47h-.034v9.47H89.12z"/><path fill="#64748b" d="M104.327 103.729h7.806v1.83h-5.709v2.996h5.409v1.764h-5.409v3.329h6.008v1.864h-8.105zm21.16 2.762a2.64 2.64 0 0 0-1.215-.915q-.75-.3-1.465-.3a4.05 4.05 0 0 0-1.664.333q-.75.333-1.298.916a4.3 4.3 0 0 0-.833 1.364 5 5 0 0 0-.283 1.698q0 .966.283 1.764.283.799.799 1.382.533.566 1.265.882.733.316 1.648.316.949 0 1.681-.366a3.36 3.36 0 0 0 1.182-.999l1.681 1.182a5.5 5.5 0 0 1-1.914 1.531q-1.132.533-2.647.533-1.381 0-2.546-.45a6 6 0 0 1-1.981-1.281 6 6 0 0 1-1.298-1.964q-.466-1.149-.466-2.53 0-1.415.483-2.546a5.8 5.8 0 0 1 1.348-1.948 6.1 6.1 0 0 1 2.03-1.231 7.2 7.2 0 0 1 2.53-.433q.566 0 1.182.116a5.4 5.4 0 0 1 1.182.333q.566.217 1.065.55.5.333.849.798zm5.58-2.762h2.097v11.783h-2.097zm7.194 0h4.177a9.3 9.3 0 0 1 2.314.299 5.9 5.9 0 0 1 2.097.999q.931.682 1.515 1.814.582 1.115.582 2.779 0 1.548-.582 2.663a5.5 5.5 0 0 1-1.515 1.831 6.5 6.5 0 0 1-2.097 1.065 8.4 8.4 0 0 1-2.314.333h-4.177zm3.845 9.952q.815 0 1.631-.183a4.4 4.4 0 0 0 1.464-.649q.666-.466 1.082-1.248.417-.783.416-1.981 0-1.265-.416-2.063-.416-.8-1.082-1.249a3.9 3.9 0 0 0-1.464-.615 8 8 0 0 0-1.631-.167h-1.748v8.155zm11.362-9.952h2.097v11.783h-2.097zm7.193 0h7.806v1.83h-5.708v2.996h5.409v1.764h-5.409v3.329h6.008v1.864h-8.106zm12.655 0h2.78l5.476 8.821h.033v-8.821h2.097v11.783h-2.663l-5.592-9.104h-.033v9.104h-2.098zm15.483 0h4.178q1.149 0 2.313.299 1.165.3 2.098.999.932.682 1.514 1.814.582 1.115.583 2.779 0 1.548-.583 2.663a5.4 5.4 0 0 1-1.514 1.831 6.5 6.5 0 0 1-2.098 1.065 8.4 8.4 0 0 1-2.313.333h-4.178zm3.845 9.952q.816 0 1.631-.183a4.4 4.4 0 0 0 1.465-.649q.666-.466 1.082-1.248.416-.783.416-1.981 0-1.265-.416-2.063-.416-.8-1.082-1.249a3.9 3.9 0 0 0-1.465-.615 8 8 0 0 0-1.631-.167h-1.747v8.155zm10.796-4.094q0-1.415.466-2.546a5.75 5.75 0 0 1 1.315-1.948 5.9 5.9 0 0 1 1.997-1.231 7.2 7.2 0 0 1 2.53-.433q1.382 0 2.547.433a5.9 5.9 0 0 1 2.014 1.231 5.45 5.45 0 0 1 1.314 1.948q.483 1.131.483 2.546 0 1.381-.483 2.53a5.8 5.8 0 0 1-1.314 1.964 6.2 6.2 0 0 1-2.014 1.281q-1.165.45-2.547.45-1.365 0-2.53-.45a6.2 6.2 0 0 1-1.997-1.281 6.2 6.2 0 0 1-1.315-1.964q-.466-1.149-.466-2.53m2.281 0q0 .949.282 1.748.3.782.833 1.364.549.583 1.281.916a4.2 4.2 0 0 0 1.648.316q.898 0 1.648-.316a3.8 3.8 0 0 0 1.281-.916q.55-.582.832-1.364.3-.799.3-1.748 0-.915-.3-1.698a4 4 0 0 0-.815-1.364 3.8 3.8 0 0 0-1.282-.916 4.05 4.05 0 0 0-1.664-.333 4.05 4.05 0 0 0-1.664.333q-.733.333-1.265.916a4.3 4.3 0 0 0-.833 1.364 5 5 0 0 0-.282 1.698m-116.6 17.142h3.844q1.016 0 1.83.183.816.183 1.399.599.583.415.898 1.065.317.649.317 1.565 0 .981-.367 1.647a3 3 0 0 1-.998 1.082q-.615.4-1.448.583a8.2 8.2 0 0 1-1.764.183h-1.615v4.876H89.12zm3.56 5.142q.517 0 .983-.066.465-.084.832-.266.366-.2.583-.533t.216-.865q0-.516-.216-.833a1.46 1.46 0 0 0-.583-.516 2.3 2.3 0 0 0-.815-.233 6.4 6.4 0 0 0-.932-.066h-1.532v3.378zm11.798-5.142h1.814l5.076 11.783h-2.397l-1.098-2.696h-5.11l-1.065 2.696h-2.347zm2.663 7.289-1.815-4.793-1.847 4.793zm7.889-7.289h4.095q.833 0 1.614.183.782.166 1.382.566.615.399.982 1.048.366.65.366 1.581 0 1.282-.733 2.097-.715.8-1.963 1.082l3.145 5.226h-2.53l-2.729-4.993h-1.531v4.993h-2.098zm3.812 5.076q.449 0 .899-.067.449-.066.799-.249a1.6 1.6 0 0 0 .599-.516q.233-.35.233-.882 0-.483-.217-.783a1.6 1.6 0 0 0-.549-.499 2.3 2.3 0 0 0-.766-.25 5 5 0 0 0-.815-.066h-1.897v3.312zm12.847-5.076h1.814l5.077 11.783h-2.397l-1.099-2.696h-5.109l-1.065 2.696h-2.347zm2.663 7.289-1.814-4.793-1.847 4.793zm23.642.167q0 1.065-.366 1.931a4.3 4.3 0 0 1-.999 1.448q-.633.599-1.498.932a5.5 5.5 0 0 1-1.881.316 5.5 5.5 0 0 1-1.88-.316 4.7 4.7 0 0 1-1.515-.932 4.35 4.35 0 0 1-.998-1.448q-.35-.866-.35-1.931v-7.456h2.097v7.373q0 .516.133 1.032a2.6 2.6 0 0 0 .433.898q.317.4.816.649.516.25 1.264.25.75 0 1.249-.25.516-.249.815-.649.317-.4.45-.898.132-.516.133-1.032v-7.373h2.097zm4.991-7.456h2.779l5.476 8.821h.033v-8.821h2.097v11.783h-2.663l-5.592-9.104h-.033v9.104h-2.097zm43.564 7.456q0 1.065-.366 1.931a4.35 4.35 0 0 1-.998 1.448q-.633.599-1.498.932a5.5 5.5 0 0 1-1.881.316 5.5 5.5 0 0 1-1.881-.316 4.7 4.7 0 0 1-1.514-.932 4.3 4.3 0 0 1-.999-1.448q-.35-.866-.349-1.931v-7.456h2.097v7.373q0 .516.133 1.032a2.6 2.6 0 0 0 .433.898q.315.4.815.649.516.25 1.265.25t1.248-.25q.516-.249.816-.649a2.45 2.45 0 0 0 .449-.898q.133-.516.133-1.032v-7.373h2.097zm7.371-5.626h-3.611v-1.83h9.32v1.83h-3.612v9.953h-2.097zm18.963 5.626q0 1.065-.366 1.931a4.35 4.35 0 0 1-.998 1.448q-.633.599-1.498.932a5.5 5.5 0 0 1-1.881.316 5.5 5.5 0 0 1-1.881-.316 4.7 4.7 0 0 1-1.514-.932 4.3 4.3 0 0 1-.999-1.448q-.35-.866-.349-1.931v-7.456h2.097v7.373q0 .516.133 1.032.134.499.432.898.317.4.816.649.516.25 1.265.25t1.248-.25q.516-.249.816-.649a2.45 2.45 0 0 0 .449-.898q.133-.516.133-1.032v-7.373h2.097zm4.991-7.456h4.095q.831 0 1.614.183.782.166 1.381.566.616.399.982 1.048.366.65.366 1.581 0 1.282-.732 2.097-.716.8-1.964 1.082l3.146 5.226h-2.53l-2.729-4.993h-1.532v4.993h-2.097zm3.812 5.076q.449 0 .898-.067.45-.066.799-.249.366-.183.599-.516.233-.35.233-.882 0-.483-.216-.783a1.6 1.6 0 0 0-.549-.499 2.3 2.3 0 0 0-.766-.25 5 5 0 0 0-.815-.066h-1.898v3.312zm8.586.782q0-1.415.466-2.546a5.75 5.75 0 0 1 1.315-1.948 5.9 5.9 0 0 1 1.997-1.231 7.2 7.2 0 0 1 2.53-.433q1.382 0 2.546.433a5.9 5.9 0 0 1 2.014 1.231 5.45 5.45 0 0 1 1.315 1.948q.483 1.131.483 2.546 0 1.381-.483 2.53a5.8 5.8 0 0 1-1.315 1.964 6.2 6.2 0 0 1-2.014 1.281q-1.164.45-2.546.45-1.365 0-2.53-.45a6.2 6.2 0 0 1-1.997-1.281 6.2 6.2 0 0 1-1.315-1.964q-.466-1.149-.466-2.53m2.28 0q0 .949.283 1.748.3.782.832 1.364.55.583 1.282.916a4.2 4.2 0 0 0 1.648.316q.898 0 1.647-.316a3.8 3.8 0 0 0 1.282-.916q.549-.582.832-1.364.3-.799.3-1.748 0-.915-.3-1.698a4 4 0 0 0-.815-1.364 3.8 3.8 0 0 0-1.282-.916 4.05 4.05 0 0 0-1.664-.333q-.916 0-1.665.333-.732.333-1.265.916a4.3 4.3 0 0 0-.832 1.364 5 5 0 0 0-.283 1.698m-145.625 17.142h7.805v1.83h-5.708v2.996h5.409v1.764h-5.409v3.329h6.008v1.864h-8.105zm18.446 7.972q0 .649-.149 1.365a3.8 3.8 0 0 1-.516 1.331 3 3 0 0 1-1.082 1.015q-.699.4-1.798.4-1.43 0-2.296-.716-.85-.716-1.166-1.881l1.931-.549q.15.583.549.932.4.333.949.333.45 0 .732-.166.3-.167.45-.466.166-.316.233-.733.066-.432.066-.932v-7.905h2.097zm4.428-2.114q0-1.415.466-2.546a5.75 5.75 0 0 1 1.315-1.948 5.9 5.9 0 0 1 1.997-1.231 7.2 7.2 0 0 1 2.53-.433q1.382 0 2.547.433a5.9 5.9 0 0 1 2.014 1.231 5.4 5.4 0 0 1 1.314 1.948q.483 1.131.483 2.546 0 1.381-.483 2.53a5.8 5.8 0 0 1-1.314 1.964 6.2 6.2 0 0 1-2.014 1.281q-1.165.45-2.547.45-1.365 0-2.53-.45a6.2 6.2 0 0 1-1.997-1.281 6.2 6.2 0 0 1-1.315-1.964q-.466-1.149-.466-2.53m2.281 0q0 .949.282 1.748.3.782.833 1.364.549.583 1.281.916.75.316 1.648.316t1.648-.316a3.8 3.8 0 0 0 1.281-.916q.55-.582.832-1.364.3-.799.3-1.748 0-.915-.3-1.698a4 4 0 0 0-.815-1.364 3.8 3.8 0 0 0-1.282-.916 4.05 4.05 0 0 0-1.664-.333 4.05 4.05 0 0 0-1.664.333q-.733.333-1.265.916a4.3 4.3 0 0 0-.833 1.364 5 5 0 0 0-.282 1.698m14.906-5.858h4.094a7 7 0 0 1 1.615.183q.782.166 1.381.566.616.399.982 1.048.366.65.366 1.581 0 1.282-.732 2.097-.716.8-1.964 1.082l3.146 5.226h-2.53l-2.73-4.993h-1.531v4.993h-2.097zm3.811 5.076q.45 0 .899-.067.45-.066.799-.249.366-.183.599-.516.233-.35.233-.882 0-.483-.216-.783a1.6 1.6 0 0 0-.549-.499 2.3 2.3 0 0 0-.766-.25 5 5 0 0 0-.815-.066h-1.898v3.312z"/></svg>