<svg width="359" height="263" viewBox="0 0 359 263" fill="none" xmlns="http://www.w3.org/2000/svg">
<rect x="0.901611" width="358.033" height="262.557" rx="3.97814" fill="white"/>
<g clip-path="url(#clip0_2271_6400)">
<path d="M110.961 134.181C110.961 132.124 111.308 130.345 112.001 128.844C112.717 127.319 113.687 126.164 114.912 125.378C116.137 124.569 117.511 124.165 119.036 124.165C120.307 124.165 121.393 124.431 122.294 124.962C123.082 125.396 123.711 125.972 124.18 126.692C124.244 126.79 124.408 126.746 124.408 126.629V118.421C124.408 118.359 124.458 118.308 124.521 118.308H131.989C132.051 118.308 132.101 118.359 132.101 118.421V143.841C132.101 143.903 132.051 143.954 131.989 143.954H124.521C124.458 143.954 124.408 143.903 124.408 143.841V141.733C124.408 141.615 124.244 141.572 124.18 141.67C123.711 142.393 123.082 142.981 122.294 143.434C121.393 143.942 120.307 144.196 119.036 144.196C117.511 144.196 116.137 143.804 114.912 143.018C113.687 142.209 112.717 141.054 112.001 139.552C111.308 138.028 110.961 136.237 110.961 134.181ZM124.442 134.181C124.442 133.141 124.177 132.332 123.645 131.755C123.114 131.177 122.432 130.888 121.601 130.888C120.769 130.888 120.087 131.177 119.556 131.755C119.024 132.332 118.759 133.141 118.759 134.181C118.759 135.22 119.024 136.029 119.556 136.607C120.087 137.184 120.769 137.473 121.601 137.473C122.432 137.473 123.114 137.184 123.645 136.607C124.177 136.029 124.442 135.22 124.442 134.181Z" fill="#0900FF"/>
<path d="M145.125 144.195C143.161 144.195 141.394 143.791 139.823 142.982C138.252 142.174 137.016 141.019 136.115 139.517C135.237 137.992 134.798 136.213 134.798 134.18C134.798 132.147 135.237 130.379 136.115 128.877C137.016 127.352 138.252 126.186 139.823 125.377C141.394 124.568 143.161 124.164 145.125 124.164C147.089 124.164 148.856 124.568 150.428 125.377C151.999 126.186 153.223 127.352 154.101 128.877C155.002 130.379 155.453 132.147 155.453 134.18C155.453 136.213 155.002 137.992 154.101 139.517C153.223 141.019 151.999 142.174 150.428 142.982C148.856 143.791 147.089 144.195 145.125 144.195ZM145.125 137.541C145.841 137.541 146.442 137.264 146.927 136.71C147.412 136.132 147.655 135.289 147.655 134.18C147.655 133.071 147.412 132.239 146.927 131.684C146.442 131.107 145.841 130.818 145.125 130.818C144.409 130.818 143.808 131.107 143.323 131.684C142.838 132.239 142.595 133.071 142.595 134.18C142.595 135.289 142.826 136.132 143.288 136.71C143.774 137.264 144.386 137.541 145.125 137.541Z" fill="#0900FF"/>
<path d="M184.244 124.269C186.739 124.269 188.668 125.02 190.031 126.522C191.418 128.023 192.111 130.057 192.111 132.621V143.841C192.111 143.903 192.06 143.954 191.998 143.954H184.564C184.502 143.954 184.451 143.903 184.451 143.841V133.592C184.451 132.76 184.197 132.113 183.689 131.651C183.204 131.166 182.545 130.923 181.713 130.923C180.858 130.923 180.188 131.166 179.703 131.651C179.219 132.113 178.975 132.76 178.975 133.592V143.841C178.975 143.903 178.925 143.954 178.863 143.954H171.429C171.367 143.954 171.317 143.903 171.317 143.841V133.592C171.317 132.76 171.062 132.113 170.554 131.651C170.069 131.166 169.411 130.923 168.579 130.923C167.724 130.923 167.054 131.166 166.569 131.651C166.084 132.113 165.841 132.76 165.841 133.592V143.841C165.841 143.903 165.791 143.954 165.728 143.954H158.26C158.198 143.954 158.147 143.903 158.147 143.841V124.52C158.147 124.458 158.198 124.408 158.26 124.408H165.728C165.791 124.408 165.841 124.458 165.841 124.52V126.669C165.841 126.781 165.99 126.827 166.057 126.738C166.586 126.045 167.264 125.476 168.094 125.031C169.064 124.523 170.196 124.269 171.49 124.269C172.9 124.269 174.147 124.581 175.233 125.205C176.269 125.778 177.105 126.583 177.742 127.619C177.785 127.689 177.886 127.693 177.934 127.627C178.635 126.675 179.513 125.89 180.57 125.274C181.679 124.604 182.903 124.269 184.244 124.269Z" fill="#0900FF"/>
<path d="M216.297 124.408C216.359 124.408 216.41 124.459 216.41 124.521V143.842C216.41 143.904 216.359 143.954 216.297 143.954H208.829C208.767 143.954 208.716 143.904 208.716 143.842V141.354C208.716 141.242 208.566 141.196 208.5 141.287C207.926 142.069 207.19 142.716 206.29 143.227C205.297 143.804 204.107 144.093 202.721 144.093C200.48 144.093 198.723 143.342 197.453 141.84C196.205 140.339 195.582 138.305 195.582 135.741V124.521C195.582 124.459 195.632 124.408 195.695 124.408H203.128C203.19 124.408 203.241 124.459 203.241 124.521V134.77C203.241 135.695 203.483 136.434 203.969 136.988C204.477 137.52 205.147 137.785 205.979 137.785C206.833 137.785 207.503 137.52 207.988 136.988C208.474 136.434 208.716 135.695 208.716 134.77V124.521C208.716 124.459 208.767 124.408 208.829 124.408H216.297Z" fill="#0900FF"/>
<path d="M228.857 144.195C227.008 144.195 225.368 143.895 223.935 143.294C222.526 142.694 221.405 141.862 220.574 140.799C219.768 139.769 219.297 138.608 219.164 137.317C219.158 137.251 219.209 137.195 219.276 137.195H226.438C226.494 137.195 226.541 137.235 226.551 137.29C226.654 137.819 226.891 138.215 227.262 138.477C227.678 138.754 228.198 138.893 228.822 138.893C229.215 138.893 229.527 138.812 229.758 138.65C229.988 138.465 230.104 138.246 230.104 137.992C230.104 137.553 229.862 137.241 229.377 137.056C228.891 136.871 228.071 136.663 226.916 136.432C225.506 136.155 224.34 135.855 223.416 135.531C222.515 135.208 221.717 134.653 221.024 133.868C220.354 133.082 220.019 131.996 220.019 130.61C220.019 129.409 220.331 128.323 220.955 127.352C221.602 126.359 222.549 125.585 223.797 125.03C225.044 124.453 226.557 124.164 228.337 124.164C230.971 124.164 233.027 124.811 234.506 126.105C235.976 127.372 236.871 129.015 237.189 131.036C237.2 131.103 237.147 131.165 237.078 131.165H230.472C230.419 131.165 230.374 131.127 230.361 131.076C230.238 130.588 230.003 130.213 229.653 129.952C229.284 129.651 228.787 129.501 228.164 129.501C227.771 129.501 227.47 129.582 227.262 129.744C227.054 129.882 226.951 130.102 226.951 130.402C226.951 130.795 227.193 131.095 227.678 131.303C228.164 131.488 228.937 131.684 230 131.892C231.41 132.17 232.599 132.482 233.57 132.828C234.54 133.175 235.384 133.775 236.1 134.63C236.816 135.462 237.174 136.617 237.174 138.096C237.174 139.251 236.839 140.291 236.169 141.215C235.499 142.139 234.529 142.867 233.258 143.398C232.01 143.93 230.543 144.195 228.857 144.195Z" fill="#0900FF"/>
<path d="M243.279 143.375C242.253 143.375 241.43 143.057 240.811 142.421C240.192 141.786 239.882 140.986 239.882 140.022C239.882 139.038 240.192 138.228 240.811 137.592C241.43 136.936 242.253 136.608 243.279 136.608C244.288 136.608 245.102 136.936 245.721 137.592C246.34 138.228 246.65 139.038 246.65 140.022C246.65 140.986 246.34 141.786 245.721 142.421C245.102 143.057 244.288 143.375 243.279 143.375Z" fill="#FF66A6"/>
</g>
<defs>
<clipPath id="clip0_2271_6400">
<rect width="138.164" height="25.941" fill="white" transform="translate(110.836 118.308)"/>
</clipPath>
</defs>
</svg>
