<svg width="359" height="263" viewBox="0 0 359 263" fill="none" xmlns="http://www.w3.org/2000/svg">
<rect x="0.803345" width="358.033" height="262.557" rx="3.97814" fill="white"/>
<path d="M124.509 111.469V91.9916H137.977V95.81H129.363V100.576H136.497V103.832H129.363V111.469H124.509ZM153.284 103.743V105.016H142.895C143.102 107.413 144.315 108.449 146.328 108.449C148.075 108.449 149.2 107.828 149.318 106.407H153.284C153.196 109.752 150.413 111.705 146.239 111.705C141.385 111.705 138.366 108.952 138.366 104.305C138.366 99.4805 141.385 96.6092 146.328 96.6092C150.413 96.6092 153.284 98.9477 153.284 103.743ZM149.318 102.618V102.381C149.318 100.724 148.193 99.8653 146.328 99.8653C144.434 99.8653 143.368 100.694 143.013 102.618H149.318ZM169.609 103.743V105.016H159.22C159.427 107.413 160.641 108.449 162.653 108.449C164.4 108.449 165.525 107.828 165.643 106.407H169.609C169.521 109.752 166.738 111.705 162.565 111.705C157.71 111.705 154.691 108.952 154.691 104.305C154.691 99.4805 157.71 96.6092 162.653 96.6092C166.738 96.6092 169.609 98.9477 169.609 103.743ZM165.643 102.618V102.381C165.643 100.724 164.518 99.8653 162.653 99.8653C160.759 99.8653 159.693 100.694 159.338 102.618H165.643ZM177.883 111.705C173.651 111.705 171.016 108.627 171.016 104.039C171.016 99.5693 173.799 96.6092 178.061 96.6092C180.429 96.6092 181.968 97.4972 182.619 99.0069H182.649V90.9556H187.148V111.469H182.649C182.679 111.173 182.738 109.9 182.827 108.331H182.767C182.205 110.403 180.547 111.705 177.883 111.705ZM178.919 108.272C181.169 108.272 182.649 106.673 182.649 104.276V103.565C182.649 101.464 181.169 100.043 178.979 100.043C176.877 100.043 175.486 101.641 175.486 104.068C175.486 106.555 176.847 108.272 178.919 108.272ZM198.7 111.705C196.036 111.705 194.142 110.581 193.609 108.716H193.579C193.609 109.574 193.668 110.758 193.727 111.469H189.228V90.9556H193.727V97.0828C193.727 97.7636 193.668 98.9773 193.638 99.6877H193.698C194.26 97.7636 196.125 96.6092 198.73 96.6092C202.903 96.6092 205.36 99.3029 205.36 103.861C205.36 108.804 202.874 111.705 198.7 111.705ZM197.546 108.272C199.618 108.272 200.861 106.703 200.861 104.009C200.861 101.523 199.618 100.043 197.516 100.043C195.148 100.043 193.727 101.552 193.727 104.068V104.749C193.727 106.969 195.148 108.272 197.546 108.272ZM211.898 111.705C208.494 111.705 206.126 110.225 206.126 107.265C206.126 104.868 207.842 103.121 211.72 103.121H216.486V102.144C216.486 100.368 215.479 99.6581 213.407 99.6581C211.72 99.6581 210.743 100.368 210.743 101.552C210.743 101.641 210.743 101.878 210.773 102.174H206.629C206.599 101.937 206.57 101.612 206.57 101.316C206.57 98.3556 209.174 96.6092 213.614 96.6092C218.262 96.6092 220.985 98.6813 220.985 102.588V111.469H216.486C216.574 110.729 216.693 109.396 216.693 108.508H216.663C216.219 110.581 214.562 111.705 211.898 111.705ZM212.786 108.656C215.124 108.656 216.486 107.62 216.486 105.844V105.548H212.134C210.921 105.548 210.181 106.111 210.181 106.94C210.181 108.064 211.158 108.656 212.786 108.656ZM229.965 111.705C225.584 111.705 222.535 108.923 222.535 104.187C222.535 99.4213 225.643 96.6092 230.143 96.6092C234.435 96.6092 237.247 99.0069 237.247 103.062H233.28C233.251 101.168 232.126 100.043 230.291 100.043C228.189 100.043 227.035 101.493 227.035 104.157C227.035 106.732 228.219 108.272 230.202 108.272C232.126 108.272 233.28 107.176 233.31 105.312H237.276C237.276 109.515 234.287 111.705 229.965 111.705ZM239.013 111.469V90.9556H243.512V103.891H243.542L249.787 96.846H255.263L249.106 103.21L255.618 111.469H249.698L245.88 106.081L243.512 108.479V111.469H239.013ZM105.967 141.469V130.339H103.806V126.846H105.967V125.425C105.967 122.051 108.424 120.334 111.739 120.334C113.219 120.334 114.492 120.66 114.877 120.808V124.123C114.492 124.004 113.693 123.768 112.657 123.768C111.177 123.768 110.466 124.448 110.466 125.751V126.846H115.114V130.339H110.466V141.469H105.967ZM123.282 141.705C118.457 141.705 115.319 138.923 115.319 134.187C115.319 129.421 118.457 126.609 123.282 126.609C128.107 126.609 131.244 129.421 131.244 134.187C131.244 138.923 128.107 141.705 123.282 141.705ZM123.282 138.272C125.472 138.272 126.745 136.762 126.745 134.187C126.745 131.582 125.472 130.043 123.282 130.043C121.091 130.043 119.819 131.582 119.819 134.187C119.819 136.762 121.091 138.272 123.282 138.272ZM132.923 141.469V126.846H137.422L137.244 131.02H137.303C137.925 128.237 139.494 126.609 142.365 126.609C145.355 126.609 147.101 128.533 147.101 132.322C147.101 133.151 147.012 134.453 146.953 135.223H142.868C142.928 134.512 142.957 133.772 142.957 133.328C142.957 131.197 142.099 130.339 140.678 130.339C138.754 130.339 137.422 131.908 137.422 135.164V141.469H132.923ZM131.346 171.705C126.196 171.705 124.035 169.515 124.035 166.555H128.061C128.061 167.916 128.742 168.804 131.317 168.804C133.655 168.804 134.484 168.124 134.484 167.058C134.484 166.525 134.218 166.111 133.448 165.933C132.678 165.756 131.494 165.637 130.044 165.519C127.942 165.341 126.314 165.016 125.426 164.394C124.598 163.802 124.035 162.736 124.035 161.523C124.035 158.356 127.291 156.609 131.346 156.609C136.142 156.609 138.332 158.444 138.332 161.848H134.366C134.336 160.309 133.626 159.51 131.406 159.51C129.393 159.51 128.505 160.191 128.505 161.197C128.505 161.819 128.742 162.292 129.57 162.5C130.31 162.677 131.613 162.796 133.182 162.944C134.987 163.121 136.26 163.299 137.355 163.92C138.302 164.453 138.983 165.548 138.983 166.821C138.983 169.9 136.349 171.705 131.346 171.705ZM148.114 171.705C143.556 171.705 141.928 169.692 141.928 166.436V160.339H139.767V156.846H141.513C142.194 156.846 142.431 156.461 142.52 155.573L142.727 153.531H146.427V156.846H151.104V160.339H146.427V166.2C146.427 167.709 147.137 168.183 148.913 168.183C149.535 168.183 150.453 168.094 150.956 167.976V171.38C150.571 171.469 149.328 171.705 148.114 171.705ZM158.712 171.705C154.923 171.705 152.555 169.811 152.555 165.519V156.846H157.054V164.986C157.054 167.028 158.179 167.976 160.103 167.976C162.53 167.976 163.98 166.377 163.98 163.18V156.846H168.48V171.469H163.98C164.069 170.462 164.158 169.248 164.188 167.65H164.128C163.477 170.462 161.494 171.705 158.712 171.705ZM177.074 171.705C172.841 171.705 170.207 168.627 170.207 164.039C170.207 159.569 172.989 156.609 177.252 156.609C179.62 156.609 181.159 157.497 181.81 159.007H181.84V150.956H186.339V171.469H181.84C181.869 171.173 181.928 169.9 182.017 168.331H181.958C181.396 170.403 179.738 171.705 177.074 171.705ZM178.11 168.272C180.36 168.272 181.84 166.673 181.84 164.276V163.565C181.84 161.464 180.36 160.043 178.169 160.043C176.068 160.043 174.676 161.641 174.676 164.068C174.676 166.555 176.038 168.272 178.11 168.272ZM203.011 163.743V165.016H192.622C192.829 167.413 194.043 168.449 196.055 168.449C197.802 168.449 198.927 167.828 199.045 166.407H203.011C202.923 169.752 200.14 171.705 195.967 171.705C191.112 171.705 188.093 168.952 188.093 164.305C188.093 159.48 191.112 156.609 196.055 156.609C200.14 156.609 203.011 158.948 203.011 163.743ZM199.045 162.618V162.381C199.045 160.724 197.92 159.865 196.055 159.865C194.161 159.865 193.095 160.694 192.74 162.618H199.045ZM204.684 171.469V156.846H209.184L209.006 160.724H209.065C209.805 157.941 211.522 156.609 214.837 156.609C218.36 156.609 220.639 158.533 220.639 162.322V171.469H216.14V163.328C216.14 161.256 214.956 160.339 212.973 160.339C210.605 160.339 209.184 161.73 209.184 164.512V171.469H204.684ZM229.885 171.705C225.326 171.705 223.698 169.692 223.698 166.436V160.339H221.537V156.846H223.284C223.965 156.846 224.201 156.461 224.29 155.573L224.497 153.531H228.197V156.846H232.874V160.339H228.197V166.2C228.197 167.709 228.908 168.183 230.684 168.183C231.305 168.183 232.223 168.094 232.726 167.976V171.38C232.341 171.469 231.098 171.705 229.885 171.705ZM241.113 171.705C235.963 171.705 233.802 169.515 233.802 166.555H237.828C237.828 167.916 238.508 168.804 241.084 168.804C243.422 168.804 244.251 168.124 244.251 167.058C244.251 166.525 243.984 166.111 243.215 165.933C242.445 165.756 241.261 165.637 239.811 165.519C237.709 165.341 236.081 165.016 235.193 164.394C234.364 163.802 233.802 162.736 233.802 161.523C233.802 158.356 237.058 156.609 241.113 156.609C245.908 156.609 248.099 158.444 248.099 161.848H244.132C244.103 160.309 243.392 159.51 241.172 159.51C239.16 159.51 238.272 160.191 238.272 161.197C238.272 161.819 238.508 162.292 239.337 162.5C240.077 162.677 241.38 162.796 242.948 162.944C244.754 163.121 246.027 163.299 247.122 163.92C248.069 164.453 248.75 165.548 248.75 166.821C248.75 169.9 246.116 171.705 241.113 171.705Z" fill="#0F172A"/>
<path d="M124.509 111.469V91.9916H137.977V95.81H129.363V100.576H136.497V103.832H129.363V111.469H124.509ZM153.284 103.743V105.016H142.895C143.102 107.413 144.315 108.449 146.328 108.449C148.075 108.449 149.2 107.828 149.318 106.407H153.284C153.196 109.752 150.413 111.705 146.239 111.705C141.385 111.705 138.366 108.952 138.366 104.305C138.366 99.4805 141.385 96.6092 146.328 96.6092C150.413 96.6092 153.284 98.9477 153.284 103.743ZM149.318 102.618V102.381C149.318 100.724 148.193 99.8653 146.328 99.8653C144.434 99.8653 143.368 100.694 143.013 102.618H149.318ZM169.609 103.743V105.016H159.22C159.427 107.413 160.641 108.449 162.653 108.449C164.4 108.449 165.525 107.828 165.643 106.407H169.609C169.521 109.752 166.738 111.705 162.565 111.705C157.71 111.705 154.691 108.952 154.691 104.305C154.691 99.4805 157.71 96.6092 162.653 96.6092C166.738 96.6092 169.609 98.9477 169.609 103.743ZM165.643 102.618V102.381C165.643 100.724 164.518 99.8653 162.653 99.8653C160.759 99.8653 159.693 100.694 159.338 102.618H165.643ZM177.883 111.705C173.651 111.705 171.016 108.627 171.016 104.039C171.016 99.5693 173.799 96.6092 178.061 96.6092C180.429 96.6092 181.968 97.4972 182.619 99.0069H182.649V90.9556H187.148V111.469H182.649C182.679 111.173 182.738 109.9 182.827 108.331H182.767C182.205 110.403 180.547 111.705 177.883 111.705ZM178.919 108.272C181.169 108.272 182.649 106.673 182.649 104.276V103.565C182.649 101.464 181.169 100.043 178.979 100.043C176.877 100.043 175.486 101.641 175.486 104.068C175.486 106.555 176.847 108.272 178.919 108.272ZM198.7 111.705C196.036 111.705 194.142 110.581 193.609 108.716H193.579C193.609 109.574 193.668 110.758 193.727 111.469H189.228V90.9556H193.727V97.0828C193.727 97.7636 193.668 98.9773 193.638 99.6877H193.698C194.26 97.7636 196.125 96.6092 198.73 96.6092C202.903 96.6092 205.36 99.3029 205.36 103.861C205.36 108.804 202.874 111.705 198.7 111.705ZM197.546 108.272C199.618 108.272 200.861 106.703 200.861 104.009C200.861 101.523 199.618 100.043 197.516 100.043C195.148 100.043 193.727 101.552 193.727 104.068V104.749C193.727 106.969 195.148 108.272 197.546 108.272ZM211.898 111.705C208.494 111.705 206.126 110.225 206.126 107.265C206.126 104.868 207.842 103.121 211.72 103.121H216.486V102.144C216.486 100.368 215.479 99.6581 213.407 99.6581C211.72 99.6581 210.743 100.368 210.743 101.552C210.743 101.641 210.743 101.878 210.773 102.174H206.629C206.599 101.937 206.57 101.612 206.57 101.316C206.57 98.3556 209.174 96.6092 213.614 96.6092C218.262 96.6092 220.985 98.6813 220.985 102.588V111.469H216.486C216.574 110.729 216.693 109.396 216.693 108.508H216.663C216.219 110.581 214.562 111.705 211.898 111.705ZM212.786 108.656C215.124 108.656 216.486 107.62 216.486 105.844V105.548H212.134C210.921 105.548 210.181 106.111 210.181 106.94C210.181 108.064 211.158 108.656 212.786 108.656ZM229.965 111.705C225.584 111.705 222.535 108.923 222.535 104.187C222.535 99.4213 225.643 96.6092 230.143 96.6092C234.435 96.6092 237.247 99.0069 237.247 103.062H233.28C233.251 101.168 232.126 100.043 230.291 100.043C228.189 100.043 227.035 101.493 227.035 104.157C227.035 106.732 228.219 108.272 230.202 108.272C232.126 108.272 233.28 107.176 233.31 105.312H237.276C237.276 109.515 234.287 111.705 229.965 111.705ZM239.013 111.469V90.9556H243.512V103.891H243.542L249.787 96.846H255.263L249.106 103.21L255.618 111.469H249.698L245.88 106.081L243.512 108.479V111.469H239.013ZM105.967 141.469V130.339H103.806V126.846H105.967V125.425C105.967 122.051 108.424 120.334 111.739 120.334C113.219 120.334 114.492 120.66 114.877 120.808V124.123C114.492 124.004 113.693 123.768 112.657 123.768C111.177 123.768 110.466 124.448 110.466 125.751V126.846H115.114V130.339H110.466V141.469H105.967ZM123.282 141.705C118.457 141.705 115.319 138.923 115.319 134.187C115.319 129.421 118.457 126.609 123.282 126.609C128.107 126.609 131.244 129.421 131.244 134.187C131.244 138.923 128.107 141.705 123.282 141.705ZM123.282 138.272C125.472 138.272 126.745 136.762 126.745 134.187C126.745 131.582 125.472 130.043 123.282 130.043C121.091 130.043 119.819 131.582 119.819 134.187C119.819 136.762 121.091 138.272 123.282 138.272ZM132.923 141.469V126.846H137.422L137.244 131.02H137.303C137.925 128.237 139.494 126.609 142.365 126.609C145.355 126.609 147.101 128.533 147.101 132.322C147.101 133.151 147.012 134.453 146.953 135.223H142.868C142.928 134.512 142.957 133.772 142.957 133.328C142.957 131.197 142.099 130.339 140.678 130.339C138.754 130.339 137.422 131.908 137.422 135.164V141.469H132.923ZM131.346 171.705C126.196 171.705 124.035 169.515 124.035 166.555H128.061C128.061 167.916 128.742 168.804 131.317 168.804C133.655 168.804 134.484 168.124 134.484 167.058C134.484 166.525 134.218 166.111 133.448 165.933C132.678 165.756 131.494 165.637 130.044 165.519C127.942 165.341 126.314 165.016 125.426 164.394C124.598 163.802 124.035 162.736 124.035 161.523C124.035 158.356 127.291 156.609 131.346 156.609C136.142 156.609 138.332 158.444 138.332 161.848H134.366C134.336 160.309 133.626 159.51 131.406 159.51C129.393 159.51 128.505 160.191 128.505 161.197C128.505 161.819 128.742 162.292 129.57 162.5C130.31 162.677 131.613 162.796 133.182 162.944C134.987 163.121 136.26 163.299 137.355 163.92C138.302 164.453 138.983 165.548 138.983 166.821C138.983 169.9 136.349 171.705 131.346 171.705ZM148.114 171.705C143.556 171.705 141.928 169.692 141.928 166.436V160.339H139.767V156.846H141.513C142.194 156.846 142.431 156.461 142.52 155.573L142.727 153.531H146.427V156.846H151.104V160.339H146.427V166.2C146.427 167.709 147.137 168.183 148.913 168.183C149.535 168.183 150.453 168.094 150.956 167.976V171.38C150.571 171.469 149.328 171.705 148.114 171.705ZM158.712 171.705C154.923 171.705 152.555 169.811 152.555 165.519V156.846H157.054V164.986C157.054 167.028 158.179 167.976 160.103 167.976C162.53 167.976 163.98 166.377 163.98 163.18V156.846H168.48V171.469H163.98C164.069 170.462 164.158 169.248 164.188 167.65H164.128C163.477 170.462 161.494 171.705 158.712 171.705ZM177.074 171.705C172.841 171.705 170.207 168.627 170.207 164.039C170.207 159.569 172.989 156.609 177.252 156.609C179.62 156.609 181.159 157.497 181.81 159.007H181.84V150.956H186.339V171.469H181.84C181.869 171.173 181.928 169.9 182.017 168.331H181.958C181.396 170.403 179.738 171.705 177.074 171.705ZM178.11 168.272C180.36 168.272 181.84 166.673 181.84 164.276V163.565C181.84 161.464 180.36 160.043 178.169 160.043C176.068 160.043 174.676 161.641 174.676 164.068C174.676 166.555 176.038 168.272 178.11 168.272ZM203.011 163.743V165.016H192.622C192.829 167.413 194.043 168.449 196.055 168.449C197.802 168.449 198.927 167.828 199.045 166.407H203.011C202.923 169.752 200.14 171.705 195.967 171.705C191.112 171.705 188.093 168.952 188.093 164.305C188.093 159.48 191.112 156.609 196.055 156.609C200.14 156.609 203.011 158.948 203.011 163.743ZM199.045 162.618V162.381C199.045 160.724 197.92 159.865 196.055 159.865C194.161 159.865 193.095 160.694 192.74 162.618H199.045ZM204.684 171.469V156.846H209.184L209.006 160.724H209.065C209.805 157.941 211.522 156.609 214.837 156.609C218.36 156.609 220.639 158.533 220.639 162.322V171.469H216.14V163.328C216.14 161.256 214.956 160.339 212.973 160.339C210.605 160.339 209.184 161.73 209.184 164.512V171.469H204.684ZM229.885 171.705C225.326 171.705 223.698 169.692 223.698 166.436V160.339H221.537V156.846H223.284C223.965 156.846 224.201 156.461 224.29 155.573L224.497 153.531H228.197V156.846H232.874V160.339H228.197V166.2C228.197 167.709 228.908 168.183 230.684 168.183C231.305 168.183 232.223 168.094 232.726 167.976V171.38C232.341 171.469 231.098 171.705 229.885 171.705ZM241.113 171.705C235.963 171.705 233.802 169.515 233.802 166.555H237.828C237.828 167.916 238.508 168.804 241.084 168.804C243.422 168.804 244.251 168.124 244.251 167.058C244.251 166.525 243.984 166.111 243.215 165.933C242.445 165.756 241.261 165.637 239.811 165.519C237.709 165.341 236.081 165.016 235.193 164.394C234.364 163.802 233.802 162.736 233.802 161.523C233.802 158.356 237.058 156.609 241.113 156.609C245.908 156.609 248.099 158.444 248.099 161.848H244.132C244.103 160.309 243.392 159.51 241.172 159.51C239.16 159.51 238.272 160.191 238.272 161.197C238.272 161.819 238.508 162.292 239.337 162.5C240.077 162.677 241.38 162.796 242.948 162.944C244.754 163.121 246.027 163.299 247.122 163.92C248.069 164.453 248.75 165.548 248.75 166.821C248.75 169.9 246.116 171.705 241.113 171.705Z" fill="black" fill-opacity="0.2"/>
<path d="M153.178 131.941C153.178 137.447 163.538 131.941 163.538 131.941C163.538 131.941 153.178 126.435 153.178 131.941Z" fill="#FF0C4F"/>
<path d="M173.899 131.941C173.899 137.447 163.539 131.941 163.539 131.941C163.539 131.941 173.899 126.435 173.899 131.941Z" fill="#FF0C4F"/>
<path d="M158.604 140.826C163.042 143.488 163.703 131.648 163.703 131.648C163.703 131.648 154.167 138.163 158.604 140.826Z" fill="#FF0C4F"/>
<path d="M168.799 122.472C173.236 125.135 163.701 131.65 163.701 131.65C163.701 131.65 164.362 119.81 168.799 122.472Z" fill="#FF0C4F"/>
<path d="M168.799 140.826C164.361 143.488 163.7 131.648 163.7 131.648C163.7 131.648 173.236 138.163 168.799 140.826Z" fill="#FF0C4F"/>
<path d="M158.605 122.472C154.168 125.135 163.703 131.65 163.703 131.65C163.703 131.65 163.042 119.81 158.605 122.472Z" fill="#FF0C4F"/>
<path d="M100.639 99.8286C106.361 99.8286 110.999 95.1902 110.999 89.4685C110.999 95.1902 115.638 99.8286 121.359 99.8286C115.638 99.8286 110.999 104.467 110.999 110.189C110.999 104.467 106.361 99.8286 100.639 99.8286Z" fill="#1161F8"/>
<path d="M113.771 161.58C118.147 161.72 121.359 162.181 121.359 162.729C121.359 163.276 118.147 163.738 113.771 163.877C116.767 167.07 118.712 169.667 118.325 170.054C117.938 170.442 115.34 168.496 112.147 165.501C112.008 169.877 111.547 173.089 110.999 173.089C110.452 173.089 109.99 169.877 109.851 165.501C106.658 168.496 104.061 170.442 103.674 170.054C103.286 169.667 105.232 167.07 108.227 163.877C103.851 163.738 100.639 163.276 100.639 162.729C100.639 162.181 103.851 161.72 108.227 161.58C105.232 158.388 103.286 155.79 103.674 155.403C104.061 155.016 106.658 156.961 109.851 159.957C109.99 155.581 110.452 152.369 110.999 152.369C111.547 152.369 112.008 155.581 112.147 159.957C115.34 156.961 117.938 155.016 118.325 155.403C118.712 155.79 116.767 158.388 113.771 161.58Z" fill="#23D7B4"/>
</svg>
