<svg width="359" height="263" viewBox="0 0 359 263" fill="none" xmlns="http://www.w3.org/2000/svg">
<rect width="358.033" height="262.557" rx="3.97814" fill="white"/>
<path d="M95.332 94V74.5231H108.8V78.3415H100.186V83.1072H107.32V86.3632H100.186V94H95.332ZM124.107 86.2744V87.5472H113.718C113.925 89.9448 115.139 90.9808 117.151 90.9808C118.898 90.9808 120.023 90.3592 120.141 88.9384H124.107C124.019 92.2832 121.236 94.2368 117.063 94.2368C112.208 94.2368 109.189 91.484 109.189 86.8368C109.189 82.0119 112.208 79.1407 117.151 79.1407C121.236 79.1407 124.107 81.4791 124.107 86.2744ZM120.141 85.1496V84.9128C120.141 83.2552 119.016 82.3967 117.151 82.3967C115.257 82.3967 114.191 83.2256 113.836 85.1496H120.141ZM140.433 86.2744V87.5472H130.043C130.25 89.9448 131.464 90.9808 133.477 90.9808C135.223 90.9808 136.348 90.3592 136.466 88.9384H140.433C140.344 92.2832 137.561 94.2368 133.388 94.2368C128.533 94.2368 125.514 91.484 125.514 86.8368C125.514 82.0119 128.533 79.1407 133.477 79.1407C137.561 79.1407 140.433 81.4791 140.433 86.2744ZM136.466 85.1496V84.9128C136.466 83.2552 135.341 82.3967 133.477 82.3967C131.582 82.3967 130.517 83.2256 130.161 85.1496H136.466ZM148.707 94.2368C144.474 94.2368 141.839 91.1584 141.839 86.5704C141.839 82.1007 144.622 79.1407 148.884 79.1407C151.252 79.1407 152.791 80.0287 153.443 81.5383H153.472V73.4871H157.971V94H153.472C153.502 93.704 153.561 92.4312 153.65 90.8624H153.591C153.028 92.9344 151.371 94.2368 148.707 94.2368ZM149.743 90.8032C151.992 90.8032 153.472 89.2048 153.472 86.8072V86.0968C153.472 83.9952 151.992 82.5744 149.802 82.5744C147.7 82.5744 146.309 84.1728 146.309 86.6C146.309 89.0864 147.671 90.8032 149.743 90.8032ZM169.523 94.2368C166.859 94.2368 164.965 93.112 164.432 91.2472H164.402C164.432 92.1056 164.491 93.2896 164.55 94H160.051V73.4871H164.55V79.6143C164.55 80.2951 164.491 81.5087 164.461 82.2191H164.521C165.083 80.2951 166.948 79.1407 169.553 79.1407C173.726 79.1407 176.183 81.8343 176.183 86.3928C176.183 91.336 173.697 94.2368 169.523 94.2368ZM168.369 90.8032C170.441 90.8032 171.684 89.2344 171.684 86.5408C171.684 84.0544 170.441 82.5744 168.339 82.5744C165.971 82.5744 164.55 84.084 164.55 86.6V87.2808C164.55 89.5008 165.971 90.8032 168.369 90.8032ZM182.721 94.2368C179.317 94.2368 176.949 92.7568 176.949 89.7968C176.949 87.3992 178.666 85.6528 182.543 85.6528H187.309V84.676C187.309 82.9 186.302 82.1895 184.23 82.1895C182.543 82.1895 181.566 82.9 181.566 84.084C181.566 84.1728 181.566 84.4096 181.596 84.7056H177.452C177.422 84.4688 177.393 84.1432 177.393 83.8472C177.393 80.8871 179.998 79.1407 184.438 79.1407C189.085 79.1407 191.808 81.2127 191.808 85.12V94H187.309C187.398 93.26 187.516 91.928 187.516 91.04H187.486C187.042 93.112 185.385 94.2368 182.721 94.2368ZM183.609 91.188C185.947 91.188 187.309 90.152 187.309 88.376V88.08H182.958C181.744 88.08 181.004 88.6424 181.004 89.4712C181.004 90.596 181.981 91.188 183.609 91.188ZM200.788 94.2368C196.407 94.2368 193.359 91.4544 193.359 86.7184C193.359 81.9527 196.467 79.1407 200.966 79.1407C205.258 79.1407 208.07 81.5383 208.07 85.5936H204.103C204.074 83.6992 202.949 82.5744 201.114 82.5744C199.012 82.5744 197.858 84.0248 197.858 86.6888C197.858 89.264 199.042 90.8032 201.025 90.8032C202.949 90.8032 204.103 89.708 204.133 87.8432H208.099C208.099 92.0464 205.11 94.2368 200.788 94.2368ZM209.836 94V73.4871H214.335V86.4224H214.365L220.61 79.3775H226.086L219.93 85.7416L226.442 94H220.522L216.703 88.6128L214.335 91.0104V94H209.836ZM96.072 124V109.378H97.6704L97.6112 113.729H97.6408C98.292 111.065 100.098 109.141 103.146 109.141C106.402 109.141 108.149 111.213 108.149 114.913C108.149 115.771 108.09 116.689 108.03 117.192H106.55C106.61 116.748 106.669 115.978 106.669 115.209C106.669 112.13 105.426 110.591 102.821 110.591C99.7128 110.591 97.6704 113.196 97.6704 117.192V124H96.072ZM124.584 115.978V116.866H112.626C112.655 120.596 114.816 122.846 118.161 122.846C120.914 122.846 122.868 121.425 123.075 119.146H124.584C124.436 122.283 121.861 124.237 118.161 124.237C113.81 124.237 111.027 121.395 111.027 116.807C111.027 112.071 113.78 109.141 118.102 109.141C122.128 109.141 124.584 111.568 124.584 115.978ZM123.075 115.653V115.505C123.075 112.278 121.18 110.532 118.161 110.532C115.112 110.532 113.07 112.367 112.685 115.653H123.075ZM128.148 129.861V109.378H129.747L129.688 113.522H129.717C130.28 110.946 132.529 109.141 135.874 109.141C140.107 109.141 142.771 111.953 142.771 116.422C142.771 121.247 140.018 124.237 135.933 124.237C132.5 124.237 130.398 122.609 129.688 120.507H129.658C129.688 121.454 129.747 122.994 129.747 123.704V129.861H128.148ZM135.726 122.786C138.923 122.786 141.172 120.389 141.172 116.452C141.172 112.841 139.012 110.591 135.608 110.591C131.996 110.591 129.806 113.018 129.747 116.659V117.606C129.747 120.507 131.878 122.786 135.726 122.786ZM152.895 124.237C148.544 124.237 145.643 121.366 145.643 116.718C145.643 112.042 148.544 109.141 152.895 109.141C157.217 109.141 160.147 112.042 160.147 116.718C160.147 121.366 157.217 124.237 152.895 124.237ZM152.895 122.786C156.24 122.786 158.549 120.478 158.549 116.718C158.549 112.93 156.24 110.591 152.895 110.591C149.551 110.591 147.242 112.93 147.242 116.718C147.242 120.478 149.551 122.786 152.895 122.786ZM163.483 124V109.378H165.081L165.022 113.729H165.052C165.703 111.065 167.508 109.141 170.557 109.141C173.813 109.141 175.56 111.213 175.56 114.913C175.56 115.771 175.5 116.689 175.441 117.192H173.961C174.02 116.748 174.08 115.978 174.08 115.209C174.08 112.13 172.836 110.591 170.232 110.591C167.124 110.591 165.081 113.196 165.081 117.192V124H163.483ZM184.506 124.089C181.221 124.089 179.8 122.017 179.8 118.85V110.798H177.254V109.378H179.326C179.741 109.378 179.918 109.17 179.948 108.46L180.007 106.062H181.398V109.378H186.963V110.798H181.398V118.761C181.398 121.218 182.286 122.668 184.625 122.668C185.572 122.668 186.519 122.461 186.874 122.342V123.734C186.46 123.882 185.542 124.089 184.506 124.089ZM195.313 124.237C190.755 124.237 189.127 122.106 189.127 119.116H190.607C190.607 121.454 191.968 122.846 195.313 122.846C198.54 122.846 200.256 121.721 200.256 119.856C200.256 119.086 199.99 118.435 199.28 118.05C198.628 117.725 197.326 117.518 195.076 117.31C192.62 117.074 191.169 116.748 190.311 116.156C189.512 115.594 189.127 114.617 189.127 113.551C189.127 110.917 191.554 109.141 195.284 109.141C199.428 109.141 201.263 111.006 201.263 114.35H199.753C199.753 111.775 198.332 110.532 195.343 110.532C192.56 110.532 190.725 111.716 190.725 113.462C190.725 114.173 190.932 114.913 191.672 115.268C192.412 115.653 193.833 115.86 195.964 116.097C198.48 116.363 199.546 116.57 200.464 117.074C201.381 117.606 201.855 118.642 201.855 119.797C201.855 122.579 199.516 124.237 195.313 124.237ZM95.2432 137.838V134.257H99.7424V137.838H95.2432ZM95.2432 154V139.378H99.7424V154H95.2432ZM101.824 154V139.378H106.323L106.146 143.255H106.205C106.945 140.473 108.662 139.141 111.977 139.141C115.499 139.141 117.779 141.065 117.779 144.854V154H113.279V145.86C113.279 143.788 112.095 142.87 110.112 142.87C107.744 142.87 106.323 144.262 106.323 147.044V154H101.824ZM133.55 154.237C128.992 154.237 127.364 152.224 127.364 148.968V142.87H125.203V139.378H126.949C127.63 139.378 127.867 138.993 127.956 138.105L128.163 136.062H131.863V139.378H136.54V142.87H131.863V148.731C131.863 150.241 132.573 150.714 134.349 150.714C134.971 150.714 135.889 150.626 136.392 150.507V153.911C136.007 154 134.764 154.237 133.55 154.237ZM152.155 146.274V147.547H141.765C141.972 149.945 143.186 150.981 145.199 150.981C146.945 150.981 148.07 150.359 148.188 148.938H152.155C152.066 152.283 149.284 154.237 145.11 154.237C140.256 154.237 137.236 151.484 137.236 146.837C137.236 142.012 140.256 139.141 145.199 139.141C149.284 139.141 152.155 141.479 152.155 146.274ZM148.188 145.15V144.913C148.188 143.255 147.064 142.397 145.199 142.397C143.304 142.397 142.239 143.226 141.884 145.15H148.188ZM159.422 154.237C156.018 154.237 153.65 152.757 153.65 149.797C153.65 147.399 155.367 145.653 159.245 145.653H164.01V144.676C164.01 142.9 163.004 142.19 160.932 142.19C159.245 142.19 158.268 142.9 158.268 144.084C158.268 144.173 158.268 144.41 158.297 144.706H154.153C154.124 144.469 154.094 144.143 154.094 143.847C154.094 140.887 156.699 139.141 161.139 139.141C165.786 139.141 168.51 141.213 168.51 145.12V154H164.01C164.099 153.26 164.218 151.928 164.218 151.04H164.188C163.744 153.112 162.086 154.237 159.422 154.237ZM160.31 151.188C162.649 151.188 164.01 150.152 164.01 148.376V148.08H159.659C158.445 148.08 157.705 148.642 157.705 149.471C157.705 150.596 158.682 151.188 160.31 151.188ZM177.49 154.237C173.109 154.237 170.06 151.454 170.06 146.718C170.06 141.953 173.168 139.141 177.667 139.141C181.959 139.141 184.771 141.538 184.771 145.594H180.805C180.775 143.699 179.651 142.574 177.815 142.574C175.714 142.574 174.559 144.025 174.559 146.689C174.559 149.264 175.743 150.803 177.727 150.803C179.651 150.803 180.805 149.708 180.835 147.843H184.801C184.801 152.046 181.811 154.237 177.49 154.237ZM186.537 154V133.487H191.037V139.94C191.037 140.502 190.948 142.16 190.859 143.255H190.918C191.658 140.473 193.375 139.141 196.69 139.141C200.213 139.141 202.492 141.065 202.492 144.854V154H197.993V145.86C197.993 143.788 196.838 142.87 194.825 142.87C192.457 142.87 191.037 144.262 191.037 147.044V154H186.537ZM218.959 146.274V147.547H208.569C208.776 149.945 209.99 150.981 212.003 150.981C213.749 150.981 214.874 150.359 214.992 148.938H218.959C218.87 152.283 216.087 154.237 211.914 154.237C207.059 154.237 204.04 151.484 204.04 146.837C204.04 142.012 207.059 139.141 212.003 139.141C216.087 139.141 218.959 141.479 218.959 146.274ZM214.992 145.15V144.913C214.992 143.255 213.867 142.397 212.003 142.397C210.108 142.397 209.043 143.226 208.687 145.15H214.992ZM220.632 154V139.378H225.131L224.953 143.551H225.012C225.634 140.769 227.203 139.141 230.074 139.141C233.064 139.141 234.81 141.065 234.81 144.854C234.81 145.682 234.721 146.985 234.662 147.754H230.577C230.637 147.044 230.666 146.304 230.666 145.86C230.666 143.729 229.808 142.87 228.387 142.87C226.463 142.87 225.131 144.439 225.131 147.695V154H220.632ZM101.045 183.237C97.8184 183.237 95.628 181.579 95.628 178.886C95.628 176.814 97.0488 175.097 100.897 175.097H107.409V173.735C107.409 170.982 105.544 169.532 102.347 169.532C99.3872 169.532 97.5816 170.746 97.5816 172.936C97.5816 173.143 97.5816 173.41 97.6112 173.617H96.1312C96.1016 173.439 96.072 173.025 96.072 172.729C96.072 169.858 98.5288 168.141 102.377 168.141C106.491 168.141 109.007 170.213 109.007 173.854V183H107.409C107.409 182.171 107.468 180.602 107.468 179.211H107.438C106.846 181.668 104.626 183.237 101.045 183.237ZM101.341 181.846C105.011 181.846 107.409 179.833 107.409 176.518V176.31H101.045C98.1736 176.31 97.1376 177.317 97.1376 178.886C97.1376 180.721 98.8248 181.846 101.341 181.846ZM118.399 183.237C113.841 183.237 112.213 181.106 112.213 178.116H113.693C113.693 180.454 115.054 181.846 118.399 181.846C121.625 181.846 123.342 180.721 123.342 178.856C123.342 178.086 123.076 177.435 122.365 177.05C121.714 176.725 120.412 176.518 118.162 176.31C115.705 176.074 114.255 175.748 113.397 175.156C112.597 174.594 112.213 173.617 112.213 172.551C112.213 169.917 114.64 168.141 118.369 168.141C122.513 168.141 124.349 170.006 124.349 173.35H122.839C122.839 170.775 121.418 169.532 118.429 169.532C115.646 169.532 113.811 170.716 113.811 172.462C113.811 173.173 114.018 173.913 114.758 174.268C115.498 174.653 116.919 174.86 119.05 175.097C121.566 175.363 122.632 175.57 123.549 176.074C124.467 176.606 124.941 177.642 124.941 178.797C124.941 181.579 122.602 183.237 118.399 183.237ZM134.03 183.237C129.472 183.237 127.844 181.106 127.844 178.116H129.324C129.324 180.454 130.686 181.846 134.03 181.846C137.257 181.846 138.974 180.721 138.974 178.856C138.974 178.086 138.707 177.435 137.997 177.05C137.346 176.725 136.043 176.518 133.794 176.31C131.337 176.074 129.886 175.748 129.028 175.156C128.229 174.594 127.844 173.617 127.844 172.551C127.844 169.917 130.271 168.141 134.001 168.141C138.145 168.141 139.98 170.006 139.98 173.35H138.47C138.47 170.775 137.05 169.532 134.06 169.532C131.278 169.532 129.442 170.716 129.442 172.462C129.442 173.173 129.65 173.913 130.39 174.268C131.13 174.653 132.55 174.86 134.682 175.097C137.198 175.363 138.263 175.57 139.181 176.074C140.099 176.606 140.572 177.642 140.572 178.797C140.572 181.579 138.234 183.237 134.03 183.237ZM144.038 166.394V163.642H145.784V166.394H144.038ZM144.127 183V168.378H145.725V183H144.127ZM159.224 181.194C162.036 181.194 163.635 182.467 163.635 184.628C163.635 187.499 161 189.246 156.59 189.246C151.943 189.246 149.16 187.706 149.16 185.013C149.16 183.296 150.492 182.053 152.357 182.053V182.023C151.617 181.52 151.173 180.721 151.173 179.714C151.173 178.678 151.588 177.968 152.032 177.642V177.583C150.64 176.666 149.871 175.215 149.871 173.35C149.871 170.183 152.15 168.141 155.82 168.141C157.389 168.141 158.721 168.526 159.728 169.206V169.177C159.432 168.792 159.195 168.2 159.195 167.549C159.195 166.335 160.112 165.595 161.652 165.595C162.303 165.595 162.717 165.714 162.924 165.802V167.134C162.747 167.046 162.362 166.927 161.829 166.927C160.852 166.927 160.26 167.371 160.26 168.259C160.26 168.822 160.468 169.502 160.764 170.183C161.415 171.042 161.77 172.107 161.77 173.35C161.77 176.518 159.491 178.56 155.82 178.56C154.755 178.56 153.837 178.382 153.038 178.086C152.772 178.323 152.564 178.856 152.564 179.478C152.564 180.543 153.245 181.194 154.518 181.194H159.224ZM155.82 169.532C153.097 169.532 151.44 171.012 151.44 173.35C151.44 175.689 153.097 177.169 155.82 177.169C158.544 177.169 160.201 175.689 160.201 173.35C160.201 171.012 158.544 169.532 155.82 169.532ZM156.59 187.854C160.349 187.854 162.036 186.611 162.036 184.776C162.036 183.355 161 182.586 159.017 182.586H154.518C152.15 182.586 150.759 183.385 150.759 184.954C150.759 186.878 152.979 187.854 156.59 187.854ZM166.771 183V168.378H168.37L168.31 172.433H168.34C169.139 169.769 171.33 168.141 174.822 168.141C178.73 168.141 181.009 170.272 181.009 173.942V183H179.41V174.238C179.41 171.278 177.694 169.591 174.349 169.591C170.797 169.591 168.37 171.752 168.37 175.511V183H166.771ZM184.686 183V168.378H186.285L186.225 172.344H186.255C186.877 169.68 188.889 168.141 191.494 168.141C194.336 168.141 196.171 169.621 196.526 172.107H196.556C197.089 169.65 199.161 168.141 201.825 168.141C205.081 168.141 206.975 170.213 206.975 173.824V183H205.377V174.12C205.377 171.219 203.986 169.591 201.44 169.591C198.598 169.591 196.615 171.663 196.615 175.334V183H195.017V173.942C195.017 171.19 193.625 169.591 191.08 169.591C188.268 169.591 186.285 171.722 186.285 175.452V183H184.686ZM223.72 174.978V175.866H211.762C211.792 179.596 213.952 181.846 217.297 181.846C220.05 181.846 222.004 180.425 222.211 178.146H223.72C223.572 181.283 220.997 183.237 217.297 183.237C212.946 183.237 210.164 180.395 210.164 175.807C210.164 171.071 212.916 168.141 217.238 168.141C221.264 168.141 223.72 170.568 223.72 174.978ZM222.211 174.653V174.505C222.211 171.278 220.316 169.532 217.297 169.532C214.248 169.532 212.206 171.367 211.821 174.653H222.211ZM227.107 183V168.378H228.705L228.646 172.433H228.676C229.475 169.769 231.665 168.141 235.158 168.141C239.065 168.141 241.345 170.272 241.345 173.942V183H239.746V174.238C239.746 171.278 238.029 169.591 234.685 169.591C231.133 169.591 228.705 171.752 228.705 175.511V183H227.107ZM250.616 183.089C247.331 183.089 245.91 181.017 245.91 177.85V169.798H243.364V168.378H245.436C245.851 168.378 246.028 168.17 246.058 167.46L246.117 165.062H247.508V168.378H253.073V169.798H247.508V177.761C247.508 180.218 248.396 181.668 250.735 181.668C251.682 181.668 252.629 181.461 252.984 181.342V182.734C252.57 182.882 251.652 183.089 250.616 183.089Z" fill="#0F172A"/>
<path d="M95.332 94V74.5231H108.8V78.3415H100.186V83.1072H107.32V86.3632H100.186V94H95.332ZM124.107 86.2744V87.5472H113.718C113.925 89.9448 115.139 90.9808 117.151 90.9808C118.898 90.9808 120.023 90.3592 120.141 88.9384H124.107C124.019 92.2832 121.236 94.2368 117.063 94.2368C112.208 94.2368 109.189 91.484 109.189 86.8368C109.189 82.0119 112.208 79.1407 117.151 79.1407C121.236 79.1407 124.107 81.4791 124.107 86.2744ZM120.141 85.1496V84.9128C120.141 83.2552 119.016 82.3967 117.151 82.3967C115.257 82.3967 114.191 83.2256 113.836 85.1496H120.141ZM140.433 86.2744V87.5472H130.043C130.25 89.9448 131.464 90.9808 133.477 90.9808C135.223 90.9808 136.348 90.3592 136.466 88.9384H140.433C140.344 92.2832 137.561 94.2368 133.388 94.2368C128.533 94.2368 125.514 91.484 125.514 86.8368C125.514 82.0119 128.533 79.1407 133.477 79.1407C137.561 79.1407 140.433 81.4791 140.433 86.2744ZM136.466 85.1496V84.9128C136.466 83.2552 135.341 82.3967 133.477 82.3967C131.582 82.3967 130.517 83.2256 130.161 85.1496H136.466ZM148.707 94.2368C144.474 94.2368 141.839 91.1584 141.839 86.5704C141.839 82.1007 144.622 79.1407 148.884 79.1407C151.252 79.1407 152.791 80.0287 153.443 81.5383H153.472V73.4871H157.971V94H153.472C153.502 93.704 153.561 92.4312 153.65 90.8624H153.591C153.028 92.9344 151.371 94.2368 148.707 94.2368ZM149.743 90.8032C151.992 90.8032 153.472 89.2048 153.472 86.8072V86.0968C153.472 83.9952 151.992 82.5744 149.802 82.5744C147.7 82.5744 146.309 84.1728 146.309 86.6C146.309 89.0864 147.671 90.8032 149.743 90.8032ZM169.523 94.2368C166.859 94.2368 164.965 93.112 164.432 91.2472H164.402C164.432 92.1056 164.491 93.2896 164.55 94H160.051V73.4871H164.55V79.6143C164.55 80.2951 164.491 81.5087 164.461 82.2191H164.521C165.083 80.2951 166.948 79.1407 169.553 79.1407C173.726 79.1407 176.183 81.8343 176.183 86.3928C176.183 91.336 173.697 94.2368 169.523 94.2368ZM168.369 90.8032C170.441 90.8032 171.684 89.2344 171.684 86.5408C171.684 84.0544 170.441 82.5744 168.339 82.5744C165.971 82.5744 164.55 84.084 164.55 86.6V87.2808C164.55 89.5008 165.971 90.8032 168.369 90.8032ZM182.721 94.2368C179.317 94.2368 176.949 92.7568 176.949 89.7968C176.949 87.3992 178.666 85.6528 182.543 85.6528H187.309V84.676C187.309 82.9 186.302 82.1895 184.23 82.1895C182.543 82.1895 181.566 82.9 181.566 84.084C181.566 84.1728 181.566 84.4096 181.596 84.7056H177.452C177.422 84.4688 177.393 84.1432 177.393 83.8472C177.393 80.8871 179.998 79.1407 184.438 79.1407C189.085 79.1407 191.808 81.2127 191.808 85.12V94H187.309C187.398 93.26 187.516 91.928 187.516 91.04H187.486C187.042 93.112 185.385 94.2368 182.721 94.2368ZM183.609 91.188C185.947 91.188 187.309 90.152 187.309 88.376V88.08H182.958C181.744 88.08 181.004 88.6424 181.004 89.4712C181.004 90.596 181.981 91.188 183.609 91.188ZM200.788 94.2368C196.407 94.2368 193.359 91.4544 193.359 86.7184C193.359 81.9527 196.467 79.1407 200.966 79.1407C205.258 79.1407 208.07 81.5383 208.07 85.5936H204.103C204.074 83.6992 202.949 82.5744 201.114 82.5744C199.012 82.5744 197.858 84.0248 197.858 86.6888C197.858 89.264 199.042 90.8032 201.025 90.8032C202.949 90.8032 204.103 89.708 204.133 87.8432H208.099C208.099 92.0464 205.11 94.2368 200.788 94.2368ZM209.836 94V73.4871H214.335V86.4224H214.365L220.61 79.3775H226.086L219.93 85.7416L226.442 94H220.522L216.703 88.6128L214.335 91.0104V94H209.836ZM96.072 124V109.378H97.6704L97.6112 113.729H97.6408C98.292 111.065 100.098 109.141 103.146 109.141C106.402 109.141 108.149 111.213 108.149 114.913C108.149 115.771 108.09 116.689 108.03 117.192H106.55C106.61 116.748 106.669 115.978 106.669 115.209C106.669 112.13 105.426 110.591 102.821 110.591C99.7128 110.591 97.6704 113.196 97.6704 117.192V124H96.072ZM124.584 115.978V116.866H112.626C112.655 120.596 114.816 122.846 118.161 122.846C120.914 122.846 122.868 121.425 123.075 119.146H124.584C124.436 122.283 121.861 124.237 118.161 124.237C113.81 124.237 111.027 121.395 111.027 116.807C111.027 112.071 113.78 109.141 118.102 109.141C122.128 109.141 124.584 111.568 124.584 115.978ZM123.075 115.653V115.505C123.075 112.278 121.18 110.532 118.161 110.532C115.112 110.532 113.07 112.367 112.685 115.653H123.075ZM128.148 129.861V109.378H129.747L129.688 113.522H129.717C130.28 110.946 132.529 109.141 135.874 109.141C140.107 109.141 142.771 111.953 142.771 116.422C142.771 121.247 140.018 124.237 135.933 124.237C132.5 124.237 130.398 122.609 129.688 120.507H129.658C129.688 121.454 129.747 122.994 129.747 123.704V129.861H128.148ZM135.726 122.786C138.923 122.786 141.172 120.389 141.172 116.452C141.172 112.841 139.012 110.591 135.608 110.591C131.996 110.591 129.806 113.018 129.747 116.659V117.606C129.747 120.507 131.878 122.786 135.726 122.786ZM152.895 124.237C148.544 124.237 145.643 121.366 145.643 116.718C145.643 112.042 148.544 109.141 152.895 109.141C157.217 109.141 160.147 112.042 160.147 116.718C160.147 121.366 157.217 124.237 152.895 124.237ZM152.895 122.786C156.24 122.786 158.549 120.478 158.549 116.718C158.549 112.93 156.24 110.591 152.895 110.591C149.551 110.591 147.242 112.93 147.242 116.718C147.242 120.478 149.551 122.786 152.895 122.786ZM163.483 124V109.378H165.081L165.022 113.729H165.052C165.703 111.065 167.508 109.141 170.557 109.141C173.813 109.141 175.56 111.213 175.56 114.913C175.56 115.771 175.5 116.689 175.441 117.192H173.961C174.02 116.748 174.08 115.978 174.08 115.209C174.08 112.13 172.836 110.591 170.232 110.591C167.124 110.591 165.081 113.196 165.081 117.192V124H163.483ZM184.506 124.089C181.221 124.089 179.8 122.017 179.8 118.85V110.798H177.254V109.378H179.326C179.741 109.378 179.918 109.17 179.948 108.46L180.007 106.062H181.398V109.378H186.963V110.798H181.398V118.761C181.398 121.218 182.286 122.668 184.625 122.668C185.572 122.668 186.519 122.461 186.874 122.342V123.734C186.46 123.882 185.542 124.089 184.506 124.089ZM195.313 124.237C190.755 124.237 189.127 122.106 189.127 119.116H190.607C190.607 121.454 191.968 122.846 195.313 122.846C198.54 122.846 200.256 121.721 200.256 119.856C200.256 119.086 199.99 118.435 199.28 118.05C198.628 117.725 197.326 117.518 195.076 117.31C192.62 117.074 191.169 116.748 190.311 116.156C189.512 115.594 189.127 114.617 189.127 113.551C189.127 110.917 191.554 109.141 195.284 109.141C199.428 109.141 201.263 111.006 201.263 114.35H199.753C199.753 111.775 198.332 110.532 195.343 110.532C192.56 110.532 190.725 111.716 190.725 113.462C190.725 114.173 190.932 114.913 191.672 115.268C192.412 115.653 193.833 115.86 195.964 116.097C198.48 116.363 199.546 116.57 200.464 117.074C201.381 117.606 201.855 118.642 201.855 119.797C201.855 122.579 199.516 124.237 195.313 124.237ZM95.2432 137.838V134.257H99.7424V137.838H95.2432ZM95.2432 154V139.378H99.7424V154H95.2432ZM101.824 154V139.378H106.323L106.146 143.255H106.205C106.945 140.473 108.662 139.141 111.977 139.141C115.499 139.141 117.779 141.065 117.779 144.854V154H113.279V145.86C113.279 143.788 112.095 142.87 110.112 142.87C107.744 142.87 106.323 144.262 106.323 147.044V154H101.824ZM133.55 154.237C128.992 154.237 127.364 152.224 127.364 148.968V142.87H125.203V139.378H126.949C127.63 139.378 127.867 138.993 127.956 138.105L128.163 136.062H131.863V139.378H136.54V142.87H131.863V148.731C131.863 150.241 132.573 150.714 134.349 150.714C134.971 150.714 135.889 150.626 136.392 150.507V153.911C136.007 154 134.764 154.237 133.55 154.237ZM152.155 146.274V147.547H141.765C141.972 149.945 143.186 150.981 145.199 150.981C146.945 150.981 148.07 150.359 148.188 148.938H152.155C152.066 152.283 149.284 154.237 145.11 154.237C140.256 154.237 137.236 151.484 137.236 146.837C137.236 142.012 140.256 139.141 145.199 139.141C149.284 139.141 152.155 141.479 152.155 146.274ZM148.188 145.15V144.913C148.188 143.255 147.064 142.397 145.199 142.397C143.304 142.397 142.239 143.226 141.884 145.15H148.188ZM159.422 154.237C156.018 154.237 153.65 152.757 153.65 149.797C153.65 147.399 155.367 145.653 159.245 145.653H164.01V144.676C164.01 142.9 163.004 142.19 160.932 142.19C159.245 142.19 158.268 142.9 158.268 144.084C158.268 144.173 158.268 144.41 158.297 144.706H154.153C154.124 144.469 154.094 144.143 154.094 143.847C154.094 140.887 156.699 139.141 161.139 139.141C165.786 139.141 168.51 141.213 168.51 145.12V154H164.01C164.099 153.26 164.218 151.928 164.218 151.04H164.188C163.744 153.112 162.086 154.237 159.422 154.237ZM160.31 151.188C162.649 151.188 164.01 150.152 164.01 148.376V148.08H159.659C158.445 148.08 157.705 148.642 157.705 149.471C157.705 150.596 158.682 151.188 160.31 151.188ZM177.49 154.237C173.109 154.237 170.06 151.454 170.06 146.718C170.06 141.953 173.168 139.141 177.667 139.141C181.959 139.141 184.771 141.538 184.771 145.594H180.805C180.775 143.699 179.651 142.574 177.815 142.574C175.714 142.574 174.559 144.025 174.559 146.689C174.559 149.264 175.743 150.803 177.727 150.803C179.651 150.803 180.805 149.708 180.835 147.843H184.801C184.801 152.046 181.811 154.237 177.49 154.237ZM186.537 154V133.487H191.037V139.94C191.037 140.502 190.948 142.16 190.859 143.255H190.918C191.658 140.473 193.375 139.141 196.69 139.141C200.213 139.141 202.492 141.065 202.492 144.854V154H197.993V145.86C197.993 143.788 196.838 142.87 194.825 142.87C192.457 142.87 191.037 144.262 191.037 147.044V154H186.537ZM218.959 146.274V147.547H208.569C208.776 149.945 209.99 150.981 212.003 150.981C213.749 150.981 214.874 150.359 214.992 148.938H218.959C218.87 152.283 216.087 154.237 211.914 154.237C207.059 154.237 204.04 151.484 204.04 146.837C204.04 142.012 207.059 139.141 212.003 139.141C216.087 139.141 218.959 141.479 218.959 146.274ZM214.992 145.15V144.913C214.992 143.255 213.867 142.397 212.003 142.397C210.108 142.397 209.043 143.226 208.687 145.15H214.992ZM220.632 154V139.378H225.131L224.953 143.551H225.012C225.634 140.769 227.203 139.141 230.074 139.141C233.064 139.141 234.81 141.065 234.81 144.854C234.81 145.682 234.721 146.985 234.662 147.754H230.577C230.637 147.044 230.666 146.304 230.666 145.86C230.666 143.729 229.808 142.87 228.387 142.87C226.463 142.87 225.131 144.439 225.131 147.695V154H220.632ZM101.045 183.237C97.8184 183.237 95.628 181.579 95.628 178.886C95.628 176.814 97.0488 175.097 100.897 175.097H107.409V173.735C107.409 170.982 105.544 169.532 102.347 169.532C99.3872 169.532 97.5816 170.746 97.5816 172.936C97.5816 173.143 97.5816 173.41 97.6112 173.617H96.1312C96.1016 173.439 96.072 173.025 96.072 172.729C96.072 169.858 98.5288 168.141 102.377 168.141C106.491 168.141 109.007 170.213 109.007 173.854V183H107.409C107.409 182.171 107.468 180.602 107.468 179.211H107.438C106.846 181.668 104.626 183.237 101.045 183.237ZM101.341 181.846C105.011 181.846 107.409 179.833 107.409 176.518V176.31H101.045C98.1736 176.31 97.1376 177.317 97.1376 178.886C97.1376 180.721 98.8248 181.846 101.341 181.846ZM118.399 183.237C113.841 183.237 112.213 181.106 112.213 178.116H113.693C113.693 180.454 115.054 181.846 118.399 181.846C121.625 181.846 123.342 180.721 123.342 178.856C123.342 178.086 123.076 177.435 122.365 177.05C121.714 176.725 120.412 176.518 118.162 176.31C115.705 176.074 114.255 175.748 113.397 175.156C112.597 174.594 112.213 173.617 112.213 172.551C112.213 169.917 114.64 168.141 118.369 168.141C122.513 168.141 124.349 170.006 124.349 173.35H122.839C122.839 170.775 121.418 169.532 118.429 169.532C115.646 169.532 113.811 170.716 113.811 172.462C113.811 173.173 114.018 173.913 114.758 174.268C115.498 174.653 116.919 174.86 119.05 175.097C121.566 175.363 122.632 175.57 123.549 176.074C124.467 176.606 124.941 177.642 124.941 178.797C124.941 181.579 122.602 183.237 118.399 183.237ZM134.03 183.237C129.472 183.237 127.844 181.106 127.844 178.116H129.324C129.324 180.454 130.686 181.846 134.03 181.846C137.257 181.846 138.974 180.721 138.974 178.856C138.974 178.086 138.707 177.435 137.997 177.05C137.346 176.725 136.043 176.518 133.794 176.31C131.337 176.074 129.886 175.748 129.028 175.156C128.229 174.594 127.844 173.617 127.844 172.551C127.844 169.917 130.271 168.141 134.001 168.141C138.145 168.141 139.98 170.006 139.98 173.35H138.47C138.47 170.775 137.05 169.532 134.06 169.532C131.278 169.532 129.442 170.716 129.442 172.462C129.442 173.173 129.65 173.913 130.39 174.268C131.13 174.653 132.55 174.86 134.682 175.097C137.198 175.363 138.263 175.57 139.181 176.074C140.099 176.606 140.572 177.642 140.572 178.797C140.572 181.579 138.234 183.237 134.03 183.237ZM144.038 166.394V163.642H145.784V166.394H144.038ZM144.127 183V168.378H145.725V183H144.127ZM159.224 181.194C162.036 181.194 163.635 182.467 163.635 184.628C163.635 187.499 161 189.246 156.59 189.246C151.943 189.246 149.16 187.706 149.16 185.013C149.16 183.296 150.492 182.053 152.357 182.053V182.023C151.617 181.52 151.173 180.721 151.173 179.714C151.173 178.678 151.588 177.968 152.032 177.642V177.583C150.64 176.666 149.871 175.215 149.871 173.35C149.871 170.183 152.15 168.141 155.82 168.141C157.389 168.141 158.721 168.526 159.728 169.206V169.177C159.432 168.792 159.195 168.2 159.195 167.549C159.195 166.335 160.112 165.595 161.652 165.595C162.303 165.595 162.717 165.714 162.924 165.802V167.134C162.747 167.046 162.362 166.927 161.829 166.927C160.852 166.927 160.26 167.371 160.26 168.259C160.26 168.822 160.468 169.502 160.764 170.183C161.415 171.042 161.77 172.107 161.77 173.35C161.77 176.518 159.491 178.56 155.82 178.56C154.755 178.56 153.837 178.382 153.038 178.086C152.772 178.323 152.564 178.856 152.564 179.478C152.564 180.543 153.245 181.194 154.518 181.194H159.224ZM155.82 169.532C153.097 169.532 151.44 171.012 151.44 173.35C151.44 175.689 153.097 177.169 155.82 177.169C158.544 177.169 160.201 175.689 160.201 173.35C160.201 171.012 158.544 169.532 155.82 169.532ZM156.59 187.854C160.349 187.854 162.036 186.611 162.036 184.776C162.036 183.355 161 182.586 159.017 182.586H154.518C152.15 182.586 150.759 183.385 150.759 184.954C150.759 186.878 152.979 187.854 156.59 187.854ZM166.771 183V168.378H168.37L168.31 172.433H168.34C169.139 169.769 171.33 168.141 174.822 168.141C178.73 168.141 181.009 170.272 181.009 173.942V183H179.41V174.238C179.41 171.278 177.694 169.591 174.349 169.591C170.797 169.591 168.37 171.752 168.37 175.511V183H166.771ZM184.686 183V168.378H186.285L186.225 172.344H186.255C186.877 169.68 188.889 168.141 191.494 168.141C194.336 168.141 196.171 169.621 196.526 172.107H196.556C197.089 169.65 199.161 168.141 201.825 168.141C205.081 168.141 206.975 170.213 206.975 173.824V183H205.377V174.12C205.377 171.219 203.986 169.591 201.44 169.591C198.598 169.591 196.615 171.663 196.615 175.334V183H195.017V173.942C195.017 171.19 193.625 169.591 191.08 169.591C188.268 169.591 186.285 171.722 186.285 175.452V183H184.686ZM223.72 174.978V175.866H211.762C211.792 179.596 213.952 181.846 217.297 181.846C220.05 181.846 222.004 180.425 222.211 178.146H223.72C223.572 181.283 220.997 183.237 217.297 183.237C212.946 183.237 210.164 180.395 210.164 175.807C210.164 171.071 212.916 168.141 217.238 168.141C221.264 168.141 223.72 170.568 223.72 174.978ZM222.211 174.653V174.505C222.211 171.278 220.316 169.532 217.297 169.532C214.248 169.532 212.206 171.367 211.821 174.653H222.211ZM227.107 183V168.378H228.705L228.646 172.433H228.676C229.475 169.769 231.665 168.141 235.158 168.141C239.065 168.141 241.345 170.272 241.345 173.942V183H239.746V174.238C239.746 171.278 238.029 169.591 234.685 169.591C231.133 169.591 228.705 171.752 228.705 175.511V183H227.107ZM250.616 183.089C247.331 183.089 245.91 181.017 245.91 177.85V169.798H243.364V168.378H245.436C245.851 168.378 246.028 168.17 246.058 167.46L246.117 165.062H247.508V168.378H253.073V169.798H247.508V177.761C247.508 180.218 248.396 181.668 250.735 181.668C251.682 181.668 252.629 181.461 252.984 181.342V182.734C252.57 182.882 251.652 183.089 250.616 183.089Z" fill="black" fill-opacity="0.2"/>
</svg>
