<svg width="360" height="264" viewBox="0 0 360 264" fill="none" xmlns="http://www.w3.org/2000/svg">
<rect width="360" height="264" rx="4" fill="white" fill-opacity="0.94"/>
<path d="M119.858 110V90.9005H125.431L130.539 105.327H130.598L135.735 90.9005H141.163V110H137.68L137.767 93.629H137.709L131.875 110H128.972L123.138 93.629H123.08L123.138 110H119.858ZM149.416 110.232C146.136 110.232 143.959 108.665 143.959 105.878C143.959 103.701 145.497 101.989 149.328 101.989H154.64V100.973C154.64 98.8248 153.392 97.8669 150.867 97.8669C148.661 97.8669 147.413 98.7087 147.413 100.305C147.413 100.392 147.413 100.624 147.442 100.857H144.452C144.423 100.653 144.394 100.276 144.394 100.015C144.394 97.1412 146.89 95.4287 150.983 95.4287C155.337 95.4287 157.891 97.4896 157.891 101.263V110H154.64C154.698 109.303 154.785 107.997 154.785 106.836H154.756C154.292 108.955 152.579 110.232 149.416 110.232ZM150.083 107.794C152.899 107.794 154.64 106.43 154.64 104.224V103.962H149.619C147.761 103.962 146.948 104.601 146.948 105.733C146.948 107.039 148.109 107.794 150.083 107.794ZM167.1 110.174C163.181 110.174 161.643 108.055 161.643 104.891V98.3023H159.379V95.6609H161.207C161.759 95.6609 161.962 95.3706 162.049 94.5579L162.194 92.4099H164.894V95.6609H169.828V98.3023H164.894V104.717C164.894 106.575 165.59 107.504 167.564 107.504C168.377 107.504 169.306 107.359 169.712 107.242V109.826C169.277 109.971 168.29 110.174 167.1 110.174ZM172.131 110V95.6609H175.382L175.266 99.7827H175.295C175.962 97.1993 177.443 95.4287 180.403 95.4287C183.509 95.4287 185.222 97.4605 185.222 101.031C185.222 101.931 185.135 103.092 185.077 103.701H182.116C182.174 103.15 182.232 102.424 182.232 101.756C182.232 99.3473 181.303 98.2152 179.387 98.2152C176.92 98.2152 175.382 100.305 175.382 103.73V110H172.131ZM187.859 94.1805L190.123 90.1168H193.52L190.414 94.1805H187.859ZM187.83 110V95.6609H191.081V110H187.83ZM200.788 110.232C196.579 110.232 193.763 107.417 193.763 102.83C193.763 98.2442 196.637 95.4287 200.962 95.4287C204.968 95.4287 207.58 97.7508 207.58 101.553H204.648C204.619 99.4053 203.226 98.0991 201.049 98.0991C198.553 98.0991 197.014 99.8697 197.014 102.83C197.014 105.762 198.524 107.562 200.933 107.562C203.226 107.562 204.648 106.285 204.677 104.166H207.609C207.609 107.997 204.881 110.232 200.788 110.232ZM216.1 110.232C212.356 110.232 210.062 108.171 210.062 104.369V95.6609H213.313V103.904C213.313 106.168 214.707 107.446 217.058 107.446C219.961 107.446 221.789 105.501 221.789 102.018V95.6609H225.04V110H221.789C221.876 109.042 221.934 107.504 221.934 105.994H221.905C221.296 108.723 219.293 110.232 216.1 110.232ZM228.089 110V89.8846H231.34V110H228.089ZM239.481 110.232C236.201 110.232 234.024 108.665 234.024 105.878C234.024 103.701 235.562 101.989 239.394 101.989H244.705V100.973C244.705 98.8248 243.457 97.8669 240.932 97.8669C238.726 97.8669 237.478 98.7087 237.478 100.305C237.478 100.392 237.478 100.624 237.507 100.857H234.517C234.488 100.653 234.459 100.276 234.459 100.015C234.459 97.1412 236.955 95.4287 241.048 95.4287C245.402 95.4287 247.956 97.4896 247.956 101.263V110H244.705C244.763 109.303 244.851 107.997 244.851 106.836H244.822C244.357 108.955 242.645 110.232 239.481 110.232ZM240.148 107.794C242.964 107.794 244.705 106.43 244.705 104.224V103.962H239.684C237.826 103.962 237.013 104.601 237.013 105.733C237.013 107.039 238.174 107.794 240.148 107.794Z" fill="#3662E3"/>
<path d="M127.259 139.29C120.932 139.29 119.277 135.952 119.277 132.469H122.412C122.412 134.907 123.573 136.591 127.23 136.591C131.12 136.591 132.107 135.139 132.107 133.572C132.107 132.527 131.672 131.918 130.772 131.598C129.814 131.221 127.753 130.96 126.098 130.727C124.183 130.466 122.151 130.031 121.106 129.363C119.945 128.638 119.219 127.331 119.219 125.532C119.219 122.048 122.209 119.61 127.201 119.61C132.862 119.61 134.922 122.107 134.922 126.461H131.788C131.788 123.645 130.249 122.31 127.259 122.31C124.386 122.31 122.673 123.5 122.673 125.241C122.673 126.315 123.051 126.954 123.805 127.302C124.647 127.709 126.795 128.057 128.45 128.289C130.452 128.608 132.31 128.928 133.5 129.566C134.806 130.234 135.561 131.569 135.561 133.34C135.561 136.417 133.761 139.29 127.259 139.29ZM152.052 139L150.455 134.704H141.544L139.918 139H136.319L144.098 119.901H148.336L156.086 139H152.052ZM142.415 132.382H149.584L146.043 122.861H145.985L142.415 132.382ZM158.282 139V119.901H171.344V122.803H161.765V128.26H169.37V130.524H161.765V136.097H171.605V139H158.282Z" fill="#4E80EE"/>
<path d="M119.509 168C119.509 163.762 120.061 162.456 125.053 160.134C129.349 158.102 130.22 156.999 130.22 154.822C130.22 152.819 128.885 151.484 126.65 151.484C124.096 151.484 122.673 153.051 122.673 155.751C122.673 156.389 122.731 157.115 122.818 157.667H119.771C119.684 157.231 119.625 156.418 119.625 155.519C119.625 151.397 122.035 148.639 126.737 148.639C131.091 148.639 133.616 151.165 133.616 154.648C133.616 157.608 132.31 159.582 127.143 161.992C123.544 163.646 123.196 164.198 123.196 165.155H133.965V168H119.509ZM143.994 168.261C138.885 168.261 136.302 164.372 136.302 158.363C136.302 152.355 139.001 148.639 143.994 148.639C148.986 148.639 151.686 152.355 151.686 158.363C151.686 164.372 149.102 168.261 143.994 168.261ZM143.994 165.417C146.838 165.417 148.319 162.775 148.319 158.363C148.319 154.038 146.809 151.484 143.994 151.484C141.178 151.484 139.669 154.038 139.669 158.363C139.669 162.775 141.12 165.417 143.994 165.417ZM153.965 168C153.965 163.762 154.516 162.456 159.509 160.134C163.805 158.102 164.676 156.999 164.676 154.822C164.676 152.819 163.34 151.484 161.105 151.484C158.551 151.484 157.129 153.051 157.129 155.751C157.129 156.389 157.187 157.115 157.274 157.667H154.226C154.139 157.231 154.081 156.418 154.081 155.519C154.081 151.397 156.49 148.639 161.192 148.639C165.546 148.639 168.072 151.165 168.072 154.648C168.072 157.608 166.766 159.582 161.599 161.992C157.999 163.646 157.651 164.198 157.651 165.155H168.42V168H153.965ZM178.652 168.261C174.037 168.261 171.163 166.229 171.163 162.978C171.163 162.688 171.193 162.398 171.222 162.224H174.356C174.327 162.456 174.327 162.63 174.327 162.746C174.327 164.372 176.011 165.417 178.594 165.417C181.033 165.417 182.542 163.82 182.542 161.498C182.542 159.321 181.003 157.986 178.507 157.986C176.591 157.986 175.082 158.828 174.589 160.192L171.425 159.873L172.208 148.901H184.777V151.745H175.024L174.531 158.073L174.589 158.102C175.169 156.564 176.94 155.606 179.465 155.606C183.587 155.606 185.938 157.899 185.938 161.498C185.938 165.562 183.122 168.261 178.652 168.261Z" fill="#70A2F3"/>
</svg>
