<svg width="359" height="263" viewBox="0 0 359 263" fill="none" xmlns="http://www.w3.org/2000/svg">
<rect x="0.803345" y="0.442627" width="358.033" height="262.557" rx="3.97814" fill="white"/>
<path d="M348 25C348 31.6274 342.627 37 336 37C329.373 37 324 31.6274 324 25C324 18.3726 329.373 13 336 13C342.627 13 348 18.3726 348 25ZM334.316 25C334.316 25.9301 335.07 26.684 336 26.684C336.93 26.684 337.684 25.9301 337.684 25C337.684 24.0699 336.93 23.316 336 23.316C335.07 23.316 334.316 24.0699 334.316 25Z" fill="#DEE9FC"/>
<g style="mix-blend-mode:multiply" opacity="0.5">
<path d="M346 25C346 30.5228 341.523 35 336 35C330.477 35 326 30.5228 326 25C326 19.4772 330.477 15 336 15C341.523 15 346 19.4772 346 25ZM332.613 25C332.613 26.8703 334.13 28.3865 336 28.3865C337.87 28.3865 339.387 26.8703 339.387 25C339.387 23.1297 337.87 21.6135 336 21.6135C334.13 21.6135 332.613 23.1297 332.613 25Z" fill="#DEE9FC"/>
</g>
<path d="M278 180C278 186.627 272.627 192 266 192C259.373 192 254 186.627 254 180C254 173.373 259.373 168 266 168C272.627 168 278 173.373 278 180ZM264.316 180C264.316 180.93 265.07 181.684 266 181.684C266.93 181.684 267.684 180.93 267.684 180C267.684 179.07 266.93 178.316 266 178.316C265.07 178.316 264.316 179.07 264.316 180Z" fill="#DEE9FC"/>
<g style="mix-blend-mode:multiply" opacity="0.5">
<path d="M276 180C276 185.523 271.523 190 266 190C260.477 190 256 185.523 256 180C256 174.477 260.477 170 266 170C271.523 170 276 174.477 276 180ZM262.613 180C262.613 181.87 264.13 183.387 266 183.387C267.87 183.387 269.387 181.87 269.387 180C269.387 178.13 267.87 176.613 266 176.613C264.13 176.613 262.613 178.13 262.613 180Z" fill="#DEE9FC"/>
</g>
<path d="M239 235C239 241.627 233.627 247 227 247C220.373 247 215 241.627 215 235C215 228.373 220.373 223 227 223C233.627 223 239 228.373 239 235ZM225.316 235C225.316 235.93 226.07 236.684 227 236.684C227.93 236.684 228.684 235.93 228.684 235C228.684 234.07 227.93 233.316 227 233.316C226.07 233.316 225.316 234.07 225.316 235Z" fill="#DEE9FC"/>
<g style="mix-blend-mode:multiply" opacity="0.5">
<path d="M237 235C237 240.523 232.523 245 227 245C221.477 245 217 240.523 217 235C217 229.477 221.477 225 227 225C232.523 225 237 229.477 237 235ZM223.613 235C223.613 236.87 225.13 238.387 227 238.387C228.87 238.387 230.387 236.87 230.387 235C230.387 233.13 228.87 231.613 227 231.613C225.13 231.613 223.613 233.13 223.613 235Z" fill="#DEE9FC"/>
</g>
<path d="M358 235C358 241.627 352.627 247 346 247C339.373 247 334 241.627 334 235C334 228.373 339.373 223 346 223C352.627 223 358 228.373 358 235ZM344.316 235C344.316 235.93 345.07 236.684 346 236.684C346.93 236.684 347.684 235.93 347.684 235C347.684 234.07 346.93 233.316 346 233.316C345.07 233.316 344.316 234.07 344.316 235Z" fill="#DEE9FC"/>
<g style="mix-blend-mode:multiply" opacity="0.5">
<path d="M356 235C356 240.523 351.523 245 346 245C340.477 245 336 240.523 336 235C336 229.477 340.477 225 346 225C351.523 225 356 229.477 356 235ZM342.613 235C342.613 236.87 344.13 238.387 346 238.387C347.87 238.387 349.387 236.87 349.387 235C349.387 233.13 347.87 231.613 346 231.613C344.13 231.613 342.613 233.13 342.613 235Z" fill="#DEE9FC"/>
</g>
<path d="M142 49C142 55.6274 136.627 61 130 61C123.373 61 118 55.6274 118 49C118 42.3726 123.373 37 130 37C136.627 37 142 42.3726 142 49ZM128.316 49C128.316 49.9301 129.07 50.684 130 50.684C130.93 50.684 131.684 49.9301 131.684 49C131.684 48.0699 130.93 47.316 130 47.316C129.07 47.316 128.316 48.0699 128.316 49Z" fill="#DEE9FC"/>
<g style="mix-blend-mode:multiply" opacity="0.5">
<path d="M140 49C140 54.5228 135.523 59 130 59C124.477 59 120 54.5228 120 49C120 43.4772 124.477 39 130 39C135.523 39 140 43.4772 140 49ZM126.613 49C126.613 50.8703 128.13 52.3865 130 52.3865C131.87 52.3865 133.387 50.8703 133.387 49C133.387 47.1297 131.87 45.6135 130 45.6135C128.13 45.6135 126.613 47.1297 126.613 49Z" fill="#DEE9FC"/>
</g>
<path d="M36 27C36 33.6274 30.6274 39 24 39C17.3726 39 12 33.6274 12 27C12 20.3726 17.3726 15 24 15C30.6274 15 36 20.3726 36 27ZM22.316 27C22.316 27.9301 23.0699 28.684 24 28.684C24.9301 28.684 25.684 27.9301 25.684 27C25.684 26.0699 24.9301 25.316 24 25.316C23.0699 25.316 22.316 26.0699 22.316 27Z" fill="#DEE9FC"/>
<g style="mix-blend-mode:multiply" opacity="0.5">
<path d="M34 27C34 32.5228 29.5228 37 24 37C18.4772 37 14 32.5228 14 27C14 21.4772 18.4772 17 24 17C29.5228 17 34 21.4772 34 27ZM20.6135 27C20.6135 28.8703 22.1297 30.3865 24 30.3865C25.8703 30.3865 27.3865 28.8703 27.3865 27C27.3865 25.1297 25.8703 23.6135 24 23.6135C22.1297 23.6135 20.6135 25.1297 20.6135 27Z" fill="#DEE9FC"/>
</g>
<path d="M112 204C112 210.627 106.627 216 100 216C93.3726 216 88 210.627 88 204C88 197.373 93.3726 192 100 192C106.627 192 112 197.373 112 204ZM98.316 204C98.316 204.93 99.0699 205.684 100 205.684C100.93 205.684 101.684 204.93 101.684 204C101.684 203.07 100.93 202.316 100 202.316C99.0699 202.316 98.316 203.07 98.316 204Z" fill="#DEE9FC"/>
<g style="mix-blend-mode:multiply" opacity="0.5">
<path d="M110 204C110 209.523 105.523 214 100 214C94.4772 214 90 209.523 90 204C90 198.477 94.4772 194 100 194C105.523 194 110 198.477 110 204ZM96.6135 204C96.6135 205.87 98.1297 207.387 100 207.387C101.87 207.387 103.387 205.87 103.387 204C103.387 202.13 101.87 200.613 100 200.613C98.1297 200.613 96.6135 202.13 96.6135 204Z" fill="#DEE9FC"/>
</g>
<g style="mix-blend-mode:multiply">
<path d="M106 194C106 200.627 100.627 206 94 206C87.3726 206 82 200.627 82 194C82 187.373 87.3726 182 94 182C100.627 182 106 187.373 106 194ZM92.316 194C92.316 194.93 93.0699 195.684 94 195.684C94.9301 195.684 95.684 194.93 95.684 194C95.684 193.07 94.9301 192.316 94 192.316C93.0699 192.316 92.316 193.07 92.316 194Z" fill="#DEE9FC"/>
<g style="mix-blend-mode:multiply" opacity="0.5">
<path d="M104 194C104 199.523 99.5228 204 94 204C88.4772 204 84 199.523 84 194C84 188.477 88.4772 184 94 184C99.5228 184 104 188.477 104 194ZM90.6135 194C90.6135 195.87 92.1297 197.387 94 197.387C95.8703 197.387 97.3865 195.87 97.3865 194C97.3865 192.13 95.8703 190.613 94 190.613C92.1297 190.613 90.6135 192.13 90.6135 194Z" fill="#DEE9FC"/>
</g>
</g>
<path d="M113.089 115.201C111.612 115.201 110.289 114.962 109.12 114.482C107.95 114.003 107.01 113.293 106.301 112.354C105.611 111.414 105.246 110.283 105.208 108.96H110.443C110.519 109.708 110.778 110.283 111.219 110.686C111.66 111.069 112.235 111.261 112.945 111.261C113.674 111.261 114.249 111.098 114.671 110.772C115.093 110.427 115.303 109.957 115.303 109.363C115.303 108.864 115.131 108.452 114.786 108.126C114.46 107.8 114.047 107.531 113.549 107.321C113.07 107.11 112.379 106.87 111.478 106.602C110.174 106.199 109.11 105.796 108.286 105.394C107.461 104.991 106.752 104.396 106.157 103.61C105.563 102.824 105.266 101.798 105.266 100.533C105.266 98.6537 105.946 97.1868 107.308 96.1322C108.669 95.0584 110.443 94.5215 112.629 94.5215C114.853 94.5215 116.646 95.0584 118.007 96.1322C119.368 97.1868 120.097 98.6632 120.193 100.562H114.872C114.834 99.9096 114.594 99.4015 114.153 99.0371C113.712 98.6537 113.146 98.4619 112.456 98.4619C111.862 98.4619 111.382 98.6249 111.018 98.9509C110.654 99.2577 110.471 99.7083 110.471 100.303C110.471 100.955 110.778 101.463 111.392 101.827C112.005 102.191 112.964 102.584 114.268 103.006C115.572 103.447 116.626 103.869 117.432 104.272C118.256 104.674 118.966 105.259 119.56 106.026C120.155 106.793 120.452 107.781 120.452 108.989C120.452 110.139 120.155 111.184 119.56 112.124C118.985 113.063 118.141 113.811 117.029 114.367C115.917 114.923 114.604 115.201 113.089 115.201ZM143.669 98.7783C145.664 98.7783 147.245 99.3823 148.415 100.59C149.604 101.798 150.198 103.476 150.198 105.624V115H145.309V106.285C145.309 105.25 145.031 104.454 144.475 103.898C143.938 103.323 143.19 103.035 142.231 103.035C141.273 103.035 140.515 103.323 139.959 103.898C139.422 104.454 139.154 105.25 139.154 106.285V115H134.264V106.285C134.264 105.25 133.986 104.454 133.43 103.898C132.893 103.323 132.145 103.035 131.187 103.035C130.228 103.035 129.471 103.323 128.915 103.898C128.378 104.454 128.109 105.25 128.109 106.285V115H123.191V98.9509H128.109V100.964C128.608 100.293 129.26 99.7658 130.065 99.3823C130.87 98.9796 131.781 98.7783 132.797 98.7783C134.005 98.7783 135.079 99.0371 136.019 99.5549C136.977 100.073 137.725 100.811 138.262 101.77C138.818 100.887 139.576 100.168 140.534 99.6124C141.493 99.0563 142.538 98.7783 143.669 98.7783ZM152.373 106.947C152.373 105.298 152.679 103.85 153.293 102.604C153.926 101.357 154.779 100.399 155.853 99.7274C156.927 99.0563 158.125 98.7208 159.448 98.7208C160.579 98.7208 161.567 98.9509 162.41 99.411C163.273 99.8712 163.935 100.475 164.395 101.223V98.9509H169.313V115H164.395V112.728C163.916 113.476 163.245 114.08 162.382 114.54C161.538 115 160.551 115.23 159.419 115.23C158.115 115.23 156.927 114.895 155.853 114.223C154.779 113.533 153.926 112.565 153.293 111.318C152.679 110.053 152.373 108.596 152.373 106.947ZM164.395 106.975C164.395 105.748 164.05 104.78 163.36 104.07C162.689 103.361 161.864 103.006 160.886 103.006C159.908 103.006 159.074 103.361 158.384 104.07C157.713 104.761 157.377 105.719 157.377 106.947C157.377 108.174 157.713 109.152 158.384 109.88C159.074 110.59 159.908 110.945 160.886 110.945C161.864 110.945 162.689 110.59 163.36 109.88C164.05 109.171 164.395 108.203 164.395 106.975ZM177.502 101.626C178.077 100.744 178.796 100.053 179.659 99.5549C180.522 99.0371 181.481 98.7783 182.536 98.7783V103.984H181.184C179.957 103.984 179.036 104.253 178.423 104.79C177.809 105.307 177.502 106.228 177.502 107.551V115H172.584V98.9509H177.502V101.626ZM193.544 110.83V115H191.041C189.258 115 187.868 114.569 186.871 113.706C185.874 112.824 185.375 111.395 185.375 109.42V103.035H183.419V98.9509H185.375V95.0392H190.294V98.9509H193.515V103.035H190.294V109.478C190.294 109.957 190.409 110.302 190.639 110.513C190.869 110.724 191.252 110.83 191.789 110.83H193.544ZM128.649 123.809V144H123.731V131.891L119.215 144H115.246L110.702 131.862V144H105.783V123.809H111.593L117.259 137.787L122.868 123.809H128.649ZM130.92 135.947C130.92 134.298 131.227 132.85 131.841 131.604C132.473 130.357 133.327 129.399 134.4 128.727C135.474 128.056 136.673 127.721 137.996 127.721C139.127 127.721 140.114 127.951 140.958 128.411C141.821 128.871 142.483 129.475 142.943 130.223V127.951H147.861V144H142.943V141.728C142.463 142.476 141.792 143.08 140.929 143.54C140.086 144 139.098 144.23 137.967 144.23C136.663 144.23 135.474 143.895 134.4 143.223C133.327 142.533 132.473 141.565 131.841 140.318C131.227 139.053 130.92 137.596 130.92 135.947ZM142.943 135.975C142.943 134.748 142.598 133.78 141.907 133.07C141.236 132.361 140.412 132.006 139.434 132.006C138.456 132.006 137.622 132.361 136.931 133.07C136.26 133.761 135.925 134.719 135.925 135.947C135.925 137.174 136.26 138.152 136.931 138.88C137.622 139.59 138.456 139.945 139.434 139.945C140.412 139.945 141.236 139.59 141.907 138.88C142.598 138.171 142.943 137.203 142.943 135.975ZM160.076 139.83V144H157.574C155.791 144 154.401 143.569 153.404 142.706C152.407 141.824 151.908 140.395 151.908 138.42V132.035H149.952V127.951H151.908V124.039H156.826V127.951H160.048V132.035H156.826V138.478C156.826 138.957 156.941 139.302 157.172 139.513C157.402 139.724 157.785 139.83 158.322 139.83H160.076ZM161.551 135.975C161.551 134.307 161.886 132.85 162.557 131.604C163.247 130.357 164.197 129.399 165.405 128.727C166.632 128.056 168.032 127.721 169.604 127.721C171.617 127.721 173.295 128.248 174.637 129.303C175.999 130.357 176.89 131.843 177.312 133.761H172.077C171.636 132.534 170.783 131.92 169.518 131.92C168.616 131.92 167.897 132.275 167.36 132.984C166.824 133.674 166.555 134.672 166.555 135.975C166.555 137.279 166.824 138.286 167.36 138.995C167.897 139.686 168.616 140.031 169.518 140.031C170.783 140.031 171.636 139.417 172.077 138.19H177.312C176.89 140.069 175.999 141.546 174.637 142.619C173.276 143.693 171.598 144.23 169.604 144.23C168.032 144.23 166.632 143.895 165.405 143.223C164.197 142.552 163.247 141.594 162.557 140.347C161.886 139.101 161.551 137.644 161.551 135.975ZM189.521 127.778C191.361 127.778 192.838 128.392 193.95 129.619C195.062 130.827 195.618 132.495 195.618 134.624V144H190.729V135.285C190.729 134.211 190.451 133.377 189.895 132.783C189.338 132.188 188.591 131.891 187.651 131.891C186.712 131.891 185.964 132.188 185.408 132.783C184.852 133.377 184.574 134.211 184.574 135.285V144H179.655V122.716H184.574V130.108C185.072 129.399 185.753 128.833 186.616 128.411C187.479 127.989 188.447 127.778 189.521 127.778ZM201.222 126.283C200.359 126.283 199.649 126.033 199.093 125.535C198.556 125.017 198.288 124.384 198.288 123.637C198.288 122.87 198.556 122.237 199.093 121.738C199.649 121.221 200.359 120.962 201.222 120.962C202.065 120.962 202.756 121.221 203.293 121.738C203.849 122.237 204.127 122.87 204.127 123.637C204.127 124.384 203.849 125.017 203.293 125.535C202.756 126.033 202.065 126.283 201.222 126.283ZM203.667 127.951V144H198.748V127.951H203.667ZM216.722 127.778C218.601 127.778 220.097 128.392 221.209 129.619C222.34 130.827 222.906 132.495 222.906 134.624V144H218.016V135.285C218.016 134.211 217.738 133.377 217.182 132.783C216.626 132.188 215.878 131.891 214.939 131.891C213.999 131.891 213.252 132.188 212.696 132.783C212.139 133.377 211.861 134.211 211.861 135.285V144H206.943V127.951H211.861V130.079C212.36 129.37 213.031 128.814 213.875 128.411C214.718 127.989 215.668 127.778 216.722 127.778ZM232.134 127.721C233.265 127.721 234.252 127.951 235.096 128.411C235.959 128.871 236.62 129.475 237.081 130.223V127.951H241.999V143.971C241.999 145.448 241.702 146.78 241.107 147.969C240.532 149.177 239.64 150.136 238.432 150.845C237.244 151.555 235.758 151.91 233.974 151.91C231.597 151.91 229.67 151.344 228.193 150.213C226.717 149.1 225.873 147.586 225.662 145.668H230.523C230.676 146.282 231.041 146.761 231.616 147.106C232.191 147.471 232.901 147.653 233.744 147.653C234.761 147.653 235.566 147.356 236.16 146.761C236.774 146.186 237.081 145.256 237.081 143.971V141.699C236.601 142.447 235.94 143.06 235.096 143.54C234.252 144 233.265 144.23 232.134 144.23C230.811 144.23 229.612 143.895 228.538 143.223C227.465 142.533 226.611 141.565 225.979 140.318C225.365 139.053 225.058 137.596 225.058 135.947C225.058 134.298 225.365 132.85 225.979 131.604C226.611 130.357 227.465 129.399 228.538 128.727C229.612 128.056 230.811 127.721 232.134 127.721ZM237.081 135.975C237.081 134.748 236.736 133.78 236.045 133.07C235.374 132.361 234.55 132.006 233.572 132.006C232.594 132.006 231.76 132.361 231.069 133.07C230.398 133.761 230.063 134.719 230.063 135.947C230.063 137.174 230.398 138.152 231.069 138.88C231.76 139.59 232.594 139.945 233.572 139.945C234.55 139.945 235.374 139.59 236.045 138.88C236.736 138.171 237.081 137.203 237.081 135.975ZM121.171 159.309C121.171 160.479 120.902 161.553 120.366 162.531C119.829 163.489 119.004 164.266 117.892 164.86C116.78 165.455 115.399 165.752 113.75 165.752H110.702V173H105.783V152.809H113.75C115.361 152.809 116.722 153.087 117.834 153.643C118.947 154.199 119.781 154.966 120.337 155.944C120.893 156.922 121.171 158.044 121.171 159.309ZM113.376 161.84C114.316 161.84 115.016 161.62 115.476 161.179C115.936 160.738 116.166 160.115 116.166 159.309C116.166 158.504 115.936 157.881 115.476 157.44C115.016 156.999 114.316 156.778 113.376 156.778H110.702V161.84H113.376ZM128.362 151.716V173H123.444V151.716H128.362ZM130.661 164.947C130.661 163.298 130.968 161.85 131.581 160.604C132.214 159.357 133.067 158.399 134.141 157.727C135.215 157.056 136.413 156.721 137.736 156.721C138.867 156.721 139.855 156.951 140.699 157.411C141.561 157.871 142.223 158.475 142.683 159.223V156.951H147.601V173H142.683V170.728C142.204 171.476 141.533 172.08 140.67 172.54C139.826 173 138.839 173.23 137.707 173.23C136.404 173.23 135.215 172.895 134.141 172.223C133.067 171.533 132.214 170.565 131.581 169.318C130.968 168.053 130.661 166.596 130.661 164.947ZM142.683 164.975C142.683 163.748 142.338 162.78 141.648 162.07C140.977 161.361 140.152 161.006 139.174 161.006C138.196 161.006 137.362 161.361 136.672 162.07C136.001 162.761 135.665 163.719 135.665 164.947C135.665 166.174 136.001 167.152 136.672 167.88C137.362 168.59 138.196 168.945 139.174 168.945C140.152 168.945 140.977 168.59 141.648 167.88C142.338 167.171 142.683 166.203 142.683 164.975ZM159.817 168.83V173H157.315C155.531 173 154.141 172.569 153.144 171.706C152.147 170.824 151.649 169.395 151.649 167.42V161.035H149.693V156.951H151.649V153.039H156.567V156.951H159.788V161.035H156.567V167.478C156.567 167.957 156.682 168.302 156.912 168.513C157.142 168.724 157.526 168.83 158.062 168.83H159.817ZM170.322 161.035H167.676V173H162.758V161.035H160.975V156.951H162.758V156.491C162.758 154.516 163.324 153.02 164.455 152.004C165.586 150.968 167.245 150.451 169.431 150.451C169.795 150.451 170.063 150.46 170.236 150.479V154.65C169.296 154.592 168.635 154.727 168.251 155.053C167.868 155.379 167.676 155.963 167.676 156.807V156.951H170.322V161.035ZM179.651 173.23C178.079 173.23 176.66 172.895 175.394 172.223C174.148 171.552 173.161 170.594 172.432 169.347C171.723 168.101 171.368 166.644 171.368 164.975C171.368 163.326 171.732 161.879 172.461 160.632C173.189 159.367 174.186 158.399 175.452 157.727C176.718 157.056 178.136 156.721 179.709 156.721C181.281 156.721 182.7 157.056 183.966 157.727C185.231 158.399 186.228 159.367 186.957 160.632C187.685 161.879 188.05 163.326 188.05 164.975C188.05 166.624 187.676 168.082 186.928 169.347C186.199 170.594 185.193 171.552 183.908 172.223C182.642 172.895 181.224 173.23 179.651 173.23ZM179.651 168.973C180.591 168.973 181.387 168.628 182.038 167.938C182.71 167.248 183.045 166.26 183.045 164.975C183.045 163.691 182.719 162.703 182.067 162.013C181.434 161.323 180.648 160.978 179.709 160.978C178.75 160.978 177.954 161.323 177.322 162.013C176.689 162.684 176.372 163.672 176.372 164.975C176.372 166.26 176.679 167.248 177.293 167.938C177.926 168.628 178.712 168.973 179.651 168.973ZM195.29 159.626C195.865 158.744 196.584 158.053 197.447 157.555C198.31 157.037 199.268 156.778 200.323 156.778V161.984H198.971C197.744 161.984 196.824 162.253 196.21 162.79C195.596 163.307 195.29 164.228 195.29 165.551V173H190.371V156.951H195.29V159.626ZM222.865 156.778C224.859 156.778 226.441 157.382 227.61 158.59C228.799 159.798 229.394 161.476 229.394 163.624V173H224.504V164.285C224.504 163.25 224.226 162.454 223.67 161.898C223.133 161.323 222.385 161.035 221.427 161.035C220.468 161.035 219.71 161.323 219.154 161.898C218.617 162.454 218.349 163.25 218.349 164.285V173H213.459V164.285C213.459 163.25 213.181 162.454 212.625 161.898C212.089 161.323 211.341 161.035 210.382 161.035C209.423 161.035 208.666 161.323 208.11 161.898C207.573 162.454 207.304 163.25 207.304 164.285V173H202.386V156.951H207.304V158.964C207.803 158.293 208.455 157.766 209.26 157.382C210.066 156.98 210.976 156.778 211.993 156.778C213.201 156.778 214.274 157.037 215.214 157.555C216.173 158.073 216.921 158.811 217.457 159.77C218.013 158.887 218.771 158.168 219.73 157.612C220.688 157.056 221.733 156.778 222.865 156.778ZM239.075 173.23C237.675 173.23 236.429 172.99 235.336 172.511C234.243 172.032 233.38 171.38 232.747 170.555C232.114 169.712 231.76 168.772 231.683 167.737H236.544C236.601 168.293 236.86 168.743 237.32 169.088C237.78 169.434 238.346 169.606 239.017 169.606C239.631 169.606 240.101 169.491 240.426 169.261C240.772 169.012 240.944 168.695 240.944 168.312C240.944 167.852 240.705 167.516 240.225 167.305C239.746 167.075 238.969 166.826 237.895 166.557C236.745 166.289 235.786 166.011 235.019 165.723C234.252 165.416 233.591 164.947 233.035 164.314C232.479 163.662 232.201 162.79 232.201 161.697C232.201 160.776 232.45 159.942 232.948 159.194C233.466 158.427 234.214 157.823 235.192 157.382C236.189 156.941 237.368 156.721 238.73 156.721C240.743 156.721 242.325 157.219 243.475 158.216C244.645 159.213 245.316 160.537 245.489 162.186H240.944C240.867 161.629 240.618 161.188 240.196 160.862C239.794 160.537 239.257 160.374 238.586 160.374C238.01 160.374 237.569 160.489 237.263 160.719C236.956 160.93 236.802 161.227 236.802 161.61C236.802 162.07 237.042 162.416 237.522 162.646C238.02 162.876 238.787 163.106 239.822 163.336C241.011 163.643 241.98 163.95 242.727 164.256C243.475 164.544 244.127 165.023 244.683 165.694C245.258 166.346 245.556 167.228 245.575 168.341C245.575 169.28 245.306 170.124 244.77 170.872C244.252 171.6 243.494 172.175 242.497 172.597C241.519 173.019 240.379 173.23 239.075 173.23Z" fill="#0038FF"/>
</svg>
