<svg width="360" height="264" viewBox="0 0 360 264" fill="none" xmlns="http://www.w3.org/2000/svg">
<rect width="360" height="264" rx="4" fill="white" fill-opacity="0.94"/>
<path d="M71.2391 142.196C69.824 142.196 68.5579 141.963 67.4407 141.497C66.3422 141.013 65.4671 140.361 64.8154 139.542C64.1823 138.704 63.8286 137.764 63.7541 136.721H69.0606C69.1351 137.224 69.3679 137.615 69.7589 137.894C70.1499 138.174 70.634 138.313 71.2112 138.313C71.6581 138.313 72.0118 138.22 72.2725 138.034C72.5332 137.848 72.6635 137.606 72.6635 137.308C72.6635 136.917 72.4494 136.628 72.0211 136.442C71.5929 136.256 70.8853 136.051 69.8985 135.828C68.7813 135.604 67.8504 135.353 67.1056 135.074C66.3608 134.794 65.7091 134.338 65.1505 133.705C64.6106 133.072 64.3406 132.215 64.3406 131.136C64.3406 130.205 64.592 129.367 65.0947 128.622C65.5974 127.859 66.3329 127.253 67.3011 126.807C68.2879 126.36 69.4703 126.136 70.8481 126.136C72.8962 126.136 74.5068 126.639 75.6799 127.644C76.8529 128.65 77.5325 129.972 77.7187 131.61H72.7752C72.6821 131.108 72.4587 130.726 72.1049 130.465C71.7698 130.186 71.3136 130.046 70.7364 130.046C70.2895 130.046 69.9451 130.13 69.703 130.298C69.4796 130.465 69.3679 130.698 69.3679 130.996C69.3679 131.368 69.582 131.657 70.0102 131.862C70.4385 132.048 71.1274 132.243 72.077 132.448C73.2128 132.69 74.1531 132.96 74.8978 133.258C75.6612 133.556 76.3222 134.04 76.8808 134.71C77.458 135.362 77.7466 136.256 77.7466 137.392C77.7466 138.304 77.4766 139.123 76.9367 139.849C76.4153 140.576 75.6612 141.153 74.6744 141.581C73.7062 141.991 72.5611 142.196 71.2391 142.196ZM96.4692 126.332V142H90.9672V139.766C90.5017 140.473 89.8593 141.05 89.0401 141.497C88.2208 141.926 87.2805 142.14 86.2192 142.14C84.3945 142.14 82.9515 141.544 81.8902 140.352C80.8475 139.142 80.3261 137.503 80.3261 135.437V126.332H85.7723V134.738C85.7723 135.632 86.0051 136.34 86.4706 136.861C86.9547 137.364 87.5877 137.615 88.3698 137.615C89.1704 137.615 89.8035 137.364 90.2689 136.861C90.7344 136.34 90.9672 135.632 90.9672 134.738V126.332H96.4692ZM105.059 128.51C105.487 127.765 106.092 127.188 106.874 126.779C107.656 126.35 108.578 126.136 109.639 126.136C110.887 126.136 112.013 126.462 113.019 127.114C114.043 127.765 114.843 128.696 115.42 129.907C116.016 131.117 116.314 132.532 116.314 134.152C116.314 135.772 116.016 137.196 115.42 138.425C114.843 139.635 114.043 140.566 113.019 141.218C112.013 141.87 110.887 142.196 109.639 142.196C108.578 142.196 107.656 141.991 106.874 141.581C106.092 141.153 105.487 140.566 105.059 139.822V142H99.5846V121.332H105.059V128.51ZM110.756 134.152C110.756 133.128 110.477 132.336 109.918 131.778C109.378 131.201 108.708 130.912 107.908 130.912C107.107 130.912 106.427 131.201 105.869 131.778C105.329 132.355 105.059 133.146 105.059 134.152C105.059 135.176 105.329 135.977 105.869 136.554C106.427 137.131 107.107 137.42 107.908 137.42C108.708 137.42 109.378 137.131 109.918 136.554C110.477 135.958 110.756 135.157 110.756 134.152ZM125.243 142.196C123.828 142.196 122.562 141.963 121.444 141.497C120.346 141.013 119.471 140.361 118.819 139.542C118.186 138.704 117.832 137.764 117.758 136.721H123.064C123.139 137.224 123.372 137.615 123.763 137.894C124.154 138.174 124.638 138.313 125.215 138.313C125.662 138.313 126.016 138.22 126.276 138.034C126.537 137.848 126.667 137.606 126.667 137.308C126.667 136.917 126.453 136.628 126.025 136.442C125.597 136.256 124.889 136.051 123.902 135.828C122.785 135.604 121.854 135.353 121.109 135.074C120.365 134.794 119.713 134.338 119.154 133.705C118.614 133.072 118.344 132.215 118.344 131.136C118.344 130.205 118.596 129.367 119.098 128.622C119.601 127.859 120.337 127.253 121.305 126.807C122.292 126.36 123.474 126.136 124.852 126.136C126.9 126.136 128.511 126.639 129.684 127.644C130.857 128.65 131.536 129.972 131.722 131.61H126.779C126.686 131.108 126.462 130.726 126.109 130.465C125.774 130.186 125.317 130.046 124.74 130.046C124.293 130.046 123.949 130.13 123.707 130.298C123.483 130.465 123.372 130.698 123.372 130.996C123.372 131.368 123.586 131.657 124.014 131.862C124.442 132.048 125.131 132.243 126.081 132.448C127.217 132.69 128.157 132.96 128.902 133.258C129.665 133.556 130.326 134.04 130.885 134.71C131.462 135.362 131.75 136.256 131.75 137.392C131.75 138.304 131.48 139.123 130.94 139.849C130.419 140.576 129.665 141.153 128.678 141.581C127.71 141.991 126.565 142.196 125.243 142.196ZM137.207 124.879C136.238 124.879 135.456 124.619 134.861 124.097C134.283 123.557 133.995 122.887 133.995 122.086C133.995 121.267 134.283 120.588 134.861 120.048C135.456 119.508 136.238 119.238 137.207 119.238C138.156 119.238 138.92 119.508 139.497 120.048C140.093 120.588 140.391 121.267 140.391 122.086C140.391 122.887 140.093 123.557 139.497 124.097C138.92 124.619 138.156 124.879 137.207 124.879ZM139.916 126.332V142H134.442V126.332H139.916ZM142.139 134.152C142.139 132.532 142.428 131.117 143.005 129.907C143.601 128.696 144.411 127.765 145.435 127.114C146.459 126.462 147.595 126.136 148.842 126.136C149.848 126.136 150.742 126.35 151.524 126.779C152.324 127.188 152.948 127.756 153.395 128.482V121.332H158.897V142H153.395V139.822C152.967 140.548 152.361 141.125 151.579 141.553C150.797 141.981 149.876 142.196 148.814 142.196C147.567 142.196 146.431 141.87 145.407 141.218C144.402 140.566 143.601 139.635 143.005 138.425C142.428 137.196 142.139 135.772 142.139 134.152ZM153.423 134.152C153.423 133.146 153.143 132.355 152.585 131.778C152.045 131.201 151.375 130.912 150.574 130.912C149.755 130.912 149.075 131.201 148.535 131.778C147.995 132.336 147.725 133.128 147.725 134.152C147.725 135.157 147.995 135.958 148.535 136.554C149.075 137.131 149.755 137.42 150.574 137.42C151.375 137.42 152.045 137.131 152.585 136.554C153.143 135.977 153.423 135.176 153.423 134.152ZM178.885 126.332L168.943 149.457H162.994L166.736 141.33L160.313 126.332H166.401L169.697 135.213L172.881 126.332H178.885ZM191.137 128.51C191.566 127.784 192.171 127.207 192.953 126.779C193.735 126.35 194.657 126.136 195.718 126.136C196.965 126.136 198.092 126.462 199.097 127.114C200.121 127.765 200.922 128.696 201.499 129.907C202.095 131.117 202.393 132.532 202.393 134.152C202.393 135.772 202.095 137.196 201.499 138.425C200.922 139.635 200.121 140.566 199.097 141.218C198.092 141.87 196.965 142.196 195.718 142.196C194.657 142.196 193.735 141.981 192.953 141.553C192.189 141.125 191.584 140.548 191.137 139.822V149.485H185.663V126.332H191.137V128.51ZM196.835 134.152C196.835 133.128 196.556 132.336 195.997 131.778C195.457 131.201 194.787 130.912 193.986 130.912C193.186 130.912 192.506 131.201 191.947 131.778C191.407 132.355 191.137 133.146 191.137 134.152C191.137 135.176 191.407 135.977 191.947 136.554C192.506 137.131 193.186 137.42 193.986 137.42C194.787 137.42 195.457 137.131 195.997 136.554C196.556 135.958 196.835 135.157 196.835 134.152ZM210.121 129.097C210.735 128.203 211.48 127.495 212.355 126.974C213.23 126.453 214.17 126.192 215.176 126.192V132.029H213.64C212.448 132.029 211.564 132.262 210.986 132.728C210.409 133.193 210.121 134.003 210.121 135.157V142H204.646V126.332H210.121V129.097ZM224.428 142.196C222.864 142.196 221.458 141.87 220.21 141.218C218.982 140.566 218.013 139.635 217.306 138.425C216.598 137.215 216.244 135.79 216.244 134.152C216.244 132.532 216.598 131.117 217.306 129.907C218.032 128.696 219.009 127.765 220.238 127.114C221.486 126.462 222.892 126.136 224.456 126.136C226.02 126.136 227.416 126.462 228.645 127.114C229.893 127.765 230.87 128.696 231.578 129.907C232.304 131.117 232.667 132.532 232.667 134.152C232.667 135.772 232.304 137.196 231.578 138.425C230.87 139.635 229.893 140.566 228.645 141.218C227.398 141.87 225.992 142.196 224.428 142.196ZM224.428 137.448C225.191 137.448 225.824 137.168 226.327 136.61C226.848 136.032 227.109 135.213 227.109 134.152C227.109 133.091 226.848 132.281 226.327 131.722C225.824 131.163 225.2 130.884 224.456 130.884C223.711 130.884 223.087 131.163 222.584 131.722C222.082 132.281 221.83 133.091 221.83 134.152C221.83 135.232 222.072 136.051 222.556 136.61C223.041 137.168 223.664 137.448 224.428 137.448ZM237.631 124.879C236.663 124.879 235.881 124.619 235.285 124.097C234.708 123.557 234.419 122.887 234.419 122.086C234.419 121.267 234.708 120.588 235.285 120.048C235.881 119.508 236.663 119.238 237.631 119.238C238.581 119.238 239.344 119.508 239.921 120.048C240.517 120.588 240.815 121.267 240.815 122.086C240.815 122.887 240.517 123.557 239.921 124.097C239.344 124.619 238.581 124.879 237.631 124.879ZM240.368 143.536C240.368 147.502 238.376 149.485 234.391 149.485H232.408V144.821H233.581C234.047 144.821 234.382 144.728 234.587 144.542C234.792 144.355 234.894 144.048 234.894 143.62V126.332H240.368V143.536ZM258.428 133.984C258.428 134.413 258.4 134.841 258.344 135.269H247.983C248.039 136.126 248.271 136.768 248.681 137.196C249.109 137.606 249.649 137.811 250.301 137.811C251.213 137.811 251.865 137.401 252.256 136.582H258.093C257.851 137.662 257.376 138.63 256.669 139.486C255.98 140.324 255.105 140.985 254.043 141.469C252.982 141.953 251.809 142.196 250.524 142.196C248.979 142.196 247.601 141.87 246.391 141.218C245.199 140.566 244.259 139.635 243.57 138.425C242.9 137.215 242.564 135.79 242.564 134.152C242.564 132.513 242.9 131.098 243.57 129.907C244.24 128.696 245.171 127.765 246.363 127.114C247.573 126.462 248.96 126.136 250.524 126.136C252.07 126.136 253.438 126.453 254.63 127.086C255.822 127.719 256.753 128.631 257.423 129.823C258.093 130.996 258.428 132.383 258.428 133.984ZM252.842 132.616C252.842 131.945 252.619 131.424 252.172 131.052C251.725 130.661 251.167 130.465 250.496 130.465C249.826 130.465 249.277 130.651 248.849 131.024C248.42 131.378 248.141 131.908 248.011 132.616H252.842ZM259.775 134.152C259.775 132.532 260.11 131.117 260.78 129.907C261.451 128.696 262.381 127.765 263.573 127.114C264.783 126.462 266.161 126.136 267.707 126.136C269.699 126.136 271.375 126.685 272.734 127.784C274.093 128.864 274.968 130.381 275.359 132.336H269.55C269.215 131.312 268.563 130.8 267.595 130.8C266.906 130.8 266.357 131.089 265.947 131.666C265.556 132.225 265.361 133.053 265.361 134.152C265.361 135.25 265.556 136.088 265.947 136.666C266.357 137.243 266.906 137.531 267.595 137.531C268.582 137.531 269.233 137.019 269.55 135.995H275.359C274.968 137.932 274.093 139.449 272.734 140.548C271.375 141.646 269.699 142.196 267.707 142.196C266.161 142.196 264.783 141.87 263.573 141.218C262.381 140.566 261.451 139.635 260.78 138.425C260.11 137.215 259.775 135.79 259.775 134.152ZM286.878 137.336V142H284.504C280.501 142 278.499 140.017 278.499 136.051V130.884H276.572V126.332H278.499V122.533H284.001V126.332H286.85V130.884H284.001V136.135C284.001 136.563 284.094 136.87 284.28 137.057C284.485 137.243 284.82 137.336 285.286 137.336H286.878Z" fill="url(#paint0_linear_2510_3999)"/>
<path d="M292.042 142.223C291.074 142.223 290.292 141.963 289.696 141.441C289.119 140.901 288.83 140.222 288.83 139.403C288.83 138.583 289.119 137.904 289.696 137.364C290.292 136.824 291.074 136.554 292.042 136.554C292.992 136.554 293.755 136.824 294.332 137.364C294.928 137.904 295.226 138.583 295.226 139.403C295.226 140.203 294.928 140.874 294.332 141.413C293.755 141.953 292.992 142.223 292.042 142.223Z" fill="#FF66A6"/>
<defs>
<linearGradient id="paint0_linear_2510_3999" x1="180" y1="111" x2="180" y2="153" gradientUnits="userSpaceOnUse">
<stop stop-color="#312E81"/>
<stop offset="1" stop-color="#2704D6"/>
</linearGradient>
</defs>
</svg>
